  0
SECTION
  2
HEADER
  9
$ACADVER
  1
AC1015
  9
$ACADMAINTVER
 70
     6
  9
$DWGCODEPAGE
  3
ANSI_1256
  9
$INSBASE
 10
0.0
 20
0.0
 30
0.0
  9
$EXTMIN
 10
0.0
 20
0.0
 30
0.0
  9
$EXTMAX
 10
320.0
 20
370.0
 30
0.0
  9
$LIMMIN
 10
0.0
 20
0.0
  9
$LIMMAX
 10
320.0
 20
370.0
  9
$ORTHOMODE
 70
     0
  9
$REGENMODE
 70
     1
  9
$FILLMODE
 70
     1
  9
$QTEXTMODE
 70
     0
  9
$MIRRTEXT
 70
     1
  9
$LTSCALE
 40
1.0
  9
$ATTMODE
 70
     1
  9
$TEXTSIZE
 40
3.5
  9
$TRACEWID
 40
1.0
  9
$TEXTSTYLE
  7
Standard
  9
$CLAYER
  8
0
  9
$CELTYPE
  6
ByLayer
  9
$CECOLOR
 62
   256
  9
$CELTSCALE
 40
1.0
  9
$DISPSILH
 70
     0
  9
$DIMSCALE
 40
1.0
  9
$DIMASZ
 40
3.302
  9
$DIMEXO
 40
1.0
  9
$DIMDLI
 40
3.75
  9
$DIMRND
 40
0.0
  9
$DIMDLE
 40
0.0
  9
$DIMEXE
 40
1.0
  9
$DIMTP
 40
0.0
  9
$DIMTM
 40
0.0
  9
$DIMTXT
 40
3.5
  9
$DIMCEN
 40
2.5
  9
$DIMTSZ
 40
0.0
  9
$DIMTOL
 70
     0
  9
$DIMLIM
 70
     0
  9
$DIMTIH
 70
     1
  9
$DIMTOH
 70
     1
  9
$DIMSE1
 70
     0
  9
$DIMSE2
 70
     0
  9
$DIMTAD
 70
     1
  9
$DIMZIN
 70
     0
  9
$DIMBLK
  1

  9
$DIMASO
 70
     1
  9
$DIMSHO
 70
     1
  9
$DIMPOST
  1

  9
$DIMAPOST
  1

  9
$DIMALT
 70
     0
  9
$DIMALTD
 70
     3
  9
$DIMALTF
 40
0.0393700787
  9
$DIMLFAC
 40
1.0
  9
$DIMTOFL
 70
     1
  9
$DIMTVP
 40
0.0
  9
$DIMTIX
 70
     0
  9
$DIMSOXD
 70
     0
  9
$DIMSAH
 70
     0
  9
$DIMBLK1
  1

  9
$DIMBLK2
  1

  9
$DIMSTYLE
  2
ISO-25
  9
$DIMCLRD
 70
     0
  9
$DIMCLRE
 70
     0
  9
$DIMCLRT
 70
     0
  9
$DIMTFAC
 40
1.0
  9
$DIMGAP
 40
1.524
  9
$DIMJUST
 70
     0
  9
$DIMSD1
 70
     0
  9
$DIMSD2
 70
     0
  9
$DIMTOLJ
 70
     0
  9
$DIMTZIN
 70
     0
  9
$DIMALTZ
 70
     0
  9
$DIMALTTZ
 70
     0
  9
$DIMUPT
 70
     0
  9
$DIMDEC
 70
     2
  9
$DIMTDEC
 70
     2
  9
$DIMALTU
 70
     2
  9
$DIMALTTD
 70
     3
  9
$DIMTXSTY
  7
Standard
  9
$DIMAUNIT
 70
     0
  9
$DIMADEC
 70
     2
  9
$DIMALTRND
 40
0.0
  9
$DIMAZIN
 70
     0
  9
$DIMDSEP
 70
    44
  9
$DIMATFIT
 70
     3
  9
$DIMFRAC
 70
     0
  9
$DIMLDRBLK
  1

  9
$DIMLUNIT
 70
     2
  9
$DIMLWD
 70
    -2
  9
$DIMLWE
 70
    -2
  9
$DIMTMOVE
 70
     0
  9
$LUNITS
 70
     2
  9
$LUPREC
 70
     2
  9
$SKETCHINC
 40
1.0
  9
$FILLETRAD
 40
10.0
  9
$AUNITS
 70
     0
  9
$AUPREC
 70
     2
  9
$MENU
  1
.
  9
$ELEVATION
 40
0.0
  9
$PELEVATION
 40
0.0
  9
$THICKNESS
 40
0.0
  9
$LIMCHECK
 70
     0
  9
$CHAMFERA
 40
0.0
  9
$CHAMFERB
 40
0.0
  9
$CHAMFERC
 40
0.0
  9
$CHAMFERD
 40
0.0
  9
$SKPOLY
 70
     0
  9
$TDCREATE
 40
2458088.994281898
  9
$TDUCREATE
 40
2458088.910948565
  9
$TDUPDATE
 40
2458088.994283114
  9
$TDUUPDATE
 40
2458088.91094978
  9
$TDINDWG
 40
0.0000000116
  9
$TDUSRTIMER
 40
0.0000000116
  9
$USRTIMER
 70
     1
  9
$ANGBASE
 50
0.0
  9
$ANGDIR
 70
     0
  9
$PDMODE
 70
     0
  9
$PDSIZE
 40
-1.0
  9
$PLINEWID
 40
0.0
  9
$SPLFRAME
 70
     0
  9
$SPLINETYPE
 70
     6
  9
$SPLINESEGS
 70
     8
  9
$HANDSEED
  5
148
  9
$SURFTAB1
 70
     6
  9
$SURFTAB2
 70
     6
  9
$SURFTYPE
 70
     6
  9
$SURFU
 70
     6
  9
$SURFV
 70
     6
  9
$UCSBASE
  2

  9
$UCSNAME
  2

  9
$UCSORG
 10
0.0
 20
0.0
 30
0.0
  9
$UCSXDIR
 10
1.0
 20
0.0
 30
0.0
  9
$UCSYDIR
 10
0.0
 20
1.0
 30
0.0
  9
$UCSORTHOREF
  2

  9
$UCSORTHOVIEW
 70
     0
  9
$UCSORGTOP
 10
0.0
 20
0.0
 30
0.0
  9
$UCSORGBOTTOM
 10
0.0
 20
0.0
 30
0.0
  9
$UCSORGLEFT
 10
0.0
 20
0.0
 30
0.0
  9
$UCSORGRIGHT
 10
0.0
 20
0.0
 30
0.0
  9
$UCSORGFRONT
 10
0.0
 20
0.0
 30
0.0
  9
$UCSORGBACK
 10
0.0
 20
0.0
 30
0.0
  9
$PUCSBASE
  2

  9
$PUCSNAME
  2

  9
$PUCSORG
 10
0.0
 20
0.0
 30
0.0
  9
$PUCSXDIR
 10
1.0
 20
0.0
 30
0.0
  9
$PUCSYDIR
 10
0.0
 20
1.0
 30
0.0
  9
$PUCSORTHOREF
  2

  9
$PUCSORTHOVIEW
 70
     0
  9
$PUCSORGTOP
 10
0.0
 20
0.0
 30
0.0
  9
$PUCSORGBOTTOM
 10
0.0
 20
0.0
 30
0.0
  9
$PUCSORGLEFT
 10
0.0
 20
0.0
 30
0.0
  9
$PUCSORGRIGHT
 10
0.0
 20
0.0
 30
0.0
  9
$PUCSORGFRONT
 10
0.0
 20
0.0
 30
0.0
  9
$PUCSORGBACK
 10
0.0
 20
0.0
 30
0.0
  9
$USERI1
 70
     0
  9
$USERI2
 70
     0
  9
$USERI3
 70
     0
  9
$USERI4
 70
     0
  9
$USERI5
 70
     0
  9
$USERR1
 40
0.0
  9
$USERR2
 40
0.0
  9
$USERR3
 40
0.0
  9
$USERR4
 40
0.0
  9
$USERR5
 40
0.0
  9
$WORLDVIEW
 70
     1
  9
$SHADEDGE
 70
     3
  9
$SHADEDIF
 70
    70
  9
$TILEMODE
 70
     1
  9
$MAXACTVP
 70
    64
  9
$PINSBASE
 10
0.0
 20
0.0
 30
0.0
  9
$PLIMCHECK
 70
     0
  9
$PEXTMIN
 10
1.0000000000E+20
 20
1.0000000000E+20
 30
1.0000000000E+20
  9
$PEXTMAX
 10
-1.0000000000E+20
 20
-1.0000000000E+20
 30
-1.0000000000E+20
  9
$PLIMMIN
 10
0.0
 20
0.0
  9
$PLIMMAX
 10
420.0
 20
297.0
  9
$UNITMODE
 70
     0
  9
$VISRETAIN
 70
     1
  9
$PLINEGEN
 70
     0
  9
$PSLTSCALE
 70
     1
  9
$TREEDEPTH
 70
  3020
  9
$CMLSTYLE
  2
Standard
  9
$CMLJUST
 70
     0
  9
$CMLSCALE
 40
20.0
  9
$PROXYGRAPHICS
 70
     1
  9
$MEASUREMENT
 70
     1
  9
$CELWEIGHT
370
    -1
  9
$ENDCAPS
280
     0
  9
$JOINSTYLE
280
     0
  9
$LWDISPLAY
290
     1
  9
$INSUNITS
 70
     4
  9
$HYPERLINKBASE
  1

  9
$STYLESHEET
  1

  9
$XEDIT
290
     1
  9
$CEPSNTYPE
380
     0
  9
$PSTYLEMODE
290
     1
  9
$FINGERPRINTGUID
  2
{062319CD-7988-418E-980A-3B6821388031}
  9
$VERSIONGUID
  2
{FAEB1C32-E019-11D5-929B-00C0DF256EC4}
  9
$EXTNAMES
290
     1
  9
$PSVPSCALE
 40
0.0
  9
$OLESTARTUP
290
     0
  0
ENDSEC
  0
SECTION
  2
CLASSES
  0
CLASS
  1
ACDBDICTIONARYWDFLT
  2
AcDbDictionaryWithDefault
  3
ObjectDBX Classes
 90
        0
280
     0
281
     0
  0
CLASS
  1
VISUALSTYLE
  2
AcDbVisualStyle
  3
ObjectDBX Classes
 90
     4095
280
     0
281
     0
  0
CLASS
  1
MATERIAL
  2
AcDbMaterial
  3
ObjectDBX Classes
 90
     1153
280
     0
281
     0
  0
CLASS
  1
SCALE
  2
AcDbScale
  3
ObjectDBX Classes
 90
     1153
280
     0
281
     0
  0
CLASS
  1
TABLESTYLE
  2
AcDbTableStyle
  3
ObjectDBX Classes
 90
     4095
280
     0
281
     0
  0
CLASS
  1
MLEADERSTYLE
  2
AcDbMLeaderStyle
  3
ACDB_MLEADERSTYLE_CLASS
 90
     4095
280
     0
281
     0
  0
CLASS
  1
SUN
  2
AcDbSun
  3
SCENEOE
 90
     1153
280
     0
281
     0
  0
CLASS
  1
ACDBPLACEHOLDER
  2
AcDbPlaceHolder
  3
ObjectDBX Classes
 90
        0
280
     0
281
     0
  0
CLASS
  1
LAYOUT
  2
AcDbLayout
  3
ObjectDBX Classes
 90
        0
280
     0
281
     0
  0
ENDSEC
  0
SECTION
  2
TABLES
  0
TABLE
  2
VPORT
  5
8
330
0
100
AcDbSymbolTable
 70
     1
  0
VPORT
  5
29
330
8
100
AcDbSymbolTableRecord
100
AcDbViewportTableRecord
  2
*Active
 70
     0
 10
0.0
 20
0.0
 11
1.0
 21
1.0
 12
160.0
 22
185.0
 13
0.0
 23
0.0
 14
10.0
 24
10.0
 15
10.0
 25
10.0
 16
0.0
 26
0.0
 36
1.0
 17
0.0
 27
0.0
 37
0.0
 40
370.0
 41
0.8648648649
 42
50.0
 43
0.0
 44
0.0
 50
0.0
 51
0.0
 71
     0
 72
  2000
 73
     1
 74
     3
 75
     0
 76
     0
 77
     0
 78
     0
281
     0
 65
     1
110
0.0
120
0.0
130
0.0
111
1.0
121
0.0
131
0.0
112
0.0
122
1.0
132
0.0
 79
     0
146
0.0
  0
ENDTAB
  0
TABLE
  2
LTYPE
  5
5
330
0
100
AcDbSymbolTable
 70
     6
  0
LTYPE
  5
14
330
5
100
AcDbSymbolTableRecord
100
AcDbLinetypeTableRecord
  2
ByBlock
 70
     0
  3

 72
    65
 73
     0
 40
0.0
  0
LTYPE
  5
15
330
5
100
AcDbSymbolTableRecord
100
AcDbLinetypeTableRecord
  2
ByLayer
 70
     0
  3

 72
    65
 73
     0
 40
0.0
  0
LTYPE
  5
16
330
5
100
AcDbSymbolTableRecord
100
AcDbLinetypeTableRecord
  2
Continuous
 70
     0
  3
Solid line
 72
    65
 73
     0
 40
0.0
  0
LTYPE
  5
6E
330
5
100
AcDbSymbolTableRecord
100
AcDbLinetypeTableRecord
  2
HIDDEN
 70
     0
  3
Hidden __ __ __ __ __ __ __ __ __ __ __ __ __ __
 72
    65
 73
     2
 40
1.905
 49
1.27
 74
     0
 49
-0.635
 74
     0
  0
LTYPE
  5
6F
330
5
100
AcDbSymbolTableRecord
100
AcDbLinetypeTableRecord
  2
PHANTOM
 70
     0
  3
Phantom ______  __  __  ______  __  __  ______
 72
    65
 73
     6
 40
12.7
 49
6.35
 74
     0
 49
-1.27
 74
     0
 49
1.27
 74
     0
 49
-1.27
 74
     0
 49
1.27
 74
     0
 49
-1.27
 74
     0
  0
LTYPE
  5
70
330
5
100
AcDbSymbolTableRecord
100
AcDbLinetypeTableRecord
  2
CENTER
 70
     0
  3
Center ____ _ ____ _ ____ _ ____ _ ____ _ ____
 72
    65
 73
     4
 40
10.16
 49
6.35
 74
     0
 49
-1.27
 74
     0
 49
1.27
 74
     0
 49
-1.27
 74
     0
  0
LTYPE
  5
71
330
5
100
AcDbSymbolTableRecord
100
AcDbLinetypeTableRecord
  2
CENTERX2
 70
     0
  3
Center (2x) ________  __  ________  __  _____
 72
    65
 73
     4
 40
20.32
 49
12.7
 74
     0
 49
-2.54
 74
     0
 49
2.54
 74
     0
 49
-2.54
 74
     0
  0
LTYPE
  5
72
330
5
100
AcDbSymbolTableRecord
100
AcDbLinetypeTableRecord
  2
DOT2
 70
     0
  3
Dot (.5x) ........................................
 72
    65
 73
     2
 40
0.635
 49
0.0
 74
     0
 49
-0.635
 74
     0
  0
ENDTAB
  0
TABLE
  2
LAYER
  5
2
330
0
100
AcDbSymbolTable
 70
     1
  0
LAYER
  5
10
330
2
100
AcDbSymbolTableRecord
100
AcDbLayerTableRecord
  2
0
 70
     0
 62
     7
  6
Continuous
370
    -3
390
F
  0
ENDTAB
  0
TABLE
  2
STYLE
  5
3
330
0
100
AcDbSymbolTable
 70
     1
  0
STYLE
  5
11
330
3
100
AcDbSymbolTableRecord
100
AcDbTextStyleTableRecord
  2
Standard
 70
     0
 40
0.0
 41
1.0
 50
0.0
 71
     0
 42
3.5
  3
txt
  4

  0
ENDTAB
  0
TABLE
  2
VIEW
  5
6
330
0
100
AcDbSymbolTable
 70
     0
  0
ENDTAB
  0
TABLE
  2
UCS
  5
7
330
0
100
AcDbSymbolTable
 70
     0
  0
ENDTAB
  0
TABLE
  2
APPID
  5
9
330
0
100
AcDbSymbolTable
 70
     1
  0
APPID
  5
12
330
9
100
AcDbSymbolTableRecord
100
AcDbRegAppTableRecord
  2
ACAD
 70
     0
  0
ENDTAB
  0
TABLE
  2
DIMSTYLE
  5
A
330
0
100
AcDbSymbolTable
 70
     1
100
AcDbDimStyleTable
  0
DIMSTYLE
105
27
330
A
100
AcDbSymbolTableRecord
100
AcDbDimStyleTableRecord
  2
ISO-25
 70
     0
 41
2.5
 42
0.625
 43
3.75
 44
1.25
 73
     0
 74
     0
 77
     1
 78
     8
140
2.5
141
2.5
143
0.0393700787
147
0.625
171
     3
172
     1
178
     0
271
     2
272
     2
274
     3
278
    44
283
     0
284
     8
340
11
  0
ENDTAB
  0
TABLE
  2
BLOCK_RECORD
  5
1
330
0
100
AcDbSymbolTable
 70
     1
  0
BLOCK_RECORD
  5
1F
330
1
100
AcDbSymbolTableRecord
100
AcDbBlockTableRecord
  2
*Model_Space
340
22
  0
BLOCK_RECORD
  5
1B
330
1
100
AcDbSymbolTableRecord
100
AcDbBlockTableRecord
  2
*Paper_Space
340
1E
  0
BLOCK_RECORD
  5
23
330
1
100
AcDbSymbolTableRecord
100
AcDbBlockTableRecord
  2
*Paper_Space0
340
26
  0
ENDTAB
  0
ENDSEC
  0
SECTION
  2
BLOCKS
  0
BLOCK
  5
20
330
1F
100
AcDbEntity
  8
0
100
AcDbBlockBegin
  2
*Model_Space
 70
     0
 10
0.0
 20
0.0
 30
0.0
  3
*Model_Space
  1

  0
ENDBLK
  5
21
330
1F
100
AcDbEntity
  8
0
100
AcDbBlockEnd
  0
BLOCK
  5
1C
330
1B
100
AcDbEntity
 67
     1
  8
0
100
AcDbBlockBegin
  2
*Paper_Space
 70
     0
 10
0.0
 20
0.0
 30
0.0
  3
*Paper_Space
  1

  0
ENDBLK
  5
1D
330
1B
100
AcDbEntity
 67
     1
  8
0
100
AcDbBlockEnd
  0
BLOCK
  5
24
330
23
100
AcDbEntity
  8
0
100
AcDbBlockBegin
  2
*Paper_Space0
 70
     0
 10
0.0
 20
0.0
 30
0.0
  3
*Paper_Space0
  1

  0
ENDBLK
  5
25
330
23
100
AcDbEntity
  8
0
100
AcDbBlockEnd
  0
ENDSEC
  0
SECTION
  2
ENTITIES
  0
LINE
  5
73
330
1F
100
AcDbEntity
  8
0
  6
Continuous
 62
     7
370
    15
100
AcDbLine
 10
86.7654478852
 20
227.0790942406
 30
0.0
 11
80.7654478852
 21
227.0790942406
 31
0.0
  0
LINE
  5
74
330
1F
100
AcDbEntity
  8
0
  6
Continuous
 62
     7
370
    15
100
AcDbLine
 10
80.7654478852
 20
227.0790942406
 30
0.0
 11
80.7654478852
 21
221.0790942406
 31
0.0
  0
LINE
  5
75
330
1F
100
AcDbEntity
  8
0
  6
Continuous
 62
     7
370
    15
100
AcDbLine
 10
80.7654478852
 20
221.0790942406
 30
0.0
 11
86.7654478852
 21
221.0790942406
 31
0.0
  0
LINE
  5
76
330
1F
100
AcDbEntity
  8
0
  6
Continuous
 62
     7
370
    15
100
AcDbLine
 10
86.7654478852
 20
221.0790942406
 30
0.0
 11
86.7654478852
 21
227.0790942406
 31
0.0
  0
LINE
  5
77
330
1F
100
AcDbEntity
  8
0
  6
Continuous
 62
     7
370
    15
100
AcDbLine
 10
122.7654478852
 20
227.0790942406
 30
0.0
 11
116.7654478852
 21
227.0790942406
 31
0.0
  0
LINE
  5
78
330
1F
100
AcDbEntity
  8
0
  6
Continuous
 62
     7
370
    15
100
AcDbLine
 10
116.7654478852
 20
227.0790942406
 30
0.0
 11
116.7654478852
 21
221.0790942406
 31
0.0
  0
LINE
  5
79
330
1F
100
AcDbEntity
  8
0
  6
Continuous
 62
     7
370
    15
100
AcDbLine
 10
116.7654478852
 20
221.0790942406
 30
0.0
 11
122.7654478852
 21
221.0790942406
 31
0.0
  0
LINE
  5
7A
330
1F
100
AcDbEntity
  8
0
  6
Continuous
 62
     7
370
    15
100
AcDbLine
 10
122.7654478852
 20
221.0790942406
 30
0.0
 11
122.7654478852
 21
227.0790942406
 31
0.0
  0
LINE
  5
7B
330
1F
100
AcDbEntity
  8
0
  6
Continuous
 62
     7
370
    15
100
AcDbLine
 10
158.7654478852
 20
227.0790942406
 30
0.0
 11
152.7654478852
 21
227.0790942406
 31
0.0
  0
LINE
  5
7C
330
1F
100
AcDbEntity
  8
0
  6
Continuous
 62
     7
370
    15
100
AcDbLine
 10
152.7654478852
 20
227.0790942406
 30
0.0
 11
152.7654478852
 21
221.0790942406
 31
0.0
  0
LINE
  5
7D
330
1F
100
AcDbEntity
  8
0
  6
Continuous
 62
     7
370
    15
100
AcDbLine
 10
152.7654478852
 20
221.0790942406
 30
0.0
 11
158.7654478852
 21
221.0790942406
 31
0.0
  0
LINE
  5
7E
330
1F
100
AcDbEntity
  8
0
  6
Continuous
 62
     7
370
    15
100
AcDbLine
 10
158.7654478852
 20
221.0790942406
 30
0.0
 11
158.7654478852
 21
227.0790942406
 31
0.0
  0
LINE
  5
7F
330
1F
100
AcDbEntity
  8
0
  6
Continuous
 62
     7
370
    15
100
AcDbLine
 10
194.7654478852
 20
227.0790942406
 30
0.0
 11
188.7654478852
 21
227.0790942406
 31
0.0
  0
LINE
  5
80
330
1F
100
AcDbEntity
  8
0
  6
Continuous
 62
     7
370
    15
100
AcDbLine
 10
188.7654478852
 20
227.0790942406
 30
0.0
 11
188.7654478852
 21
221.0790942406
 31
0.0
  0
LINE
  5
81
330
1F
100
AcDbEntity
  8
0
  6
Continuous
 62
     7
370
    15
100
AcDbLine
 10
188.7654478852
 20
221.0790942406
 30
0.0
 11
194.7654478852
 21
221.0790942406
 31
0.0
  0
LINE
  5
82
330
1F
100
AcDbEntity
  8
0
  6
Continuous
 62
     7
370
    15
100
AcDbLine
 10
194.7654478852
 20
221.0790942406
 30
0.0
 11
194.7654478852
 21
227.0790942406
 31
0.0
  0
LINE
  5
83
330
1F
100
AcDbEntity
  8
0
  6
Continuous
 62
     7
370
    15
100
AcDbLine
 10
230.7654478852
 20
227.0790942406
 30
0.0
 11
224.7654478852
 21
227.0790942406
 31
0.0
  0
LINE
  5
84
330
1F
100
AcDbEntity
  8
0
  6
Continuous
 62
     7
370
    15
100
AcDbLine
 10
224.7654478852
 20
227.0790942406
 30
0.0
 11
224.7654478852
 21
221.0790942406
 31
0.0
  0
LINE
  5
85
330
1F
100
AcDbEntity
  8
0
  6
Continuous
 62
     7
370
    15
100
AcDbLine
 10
224.7654478852
 20
221.0790942406
 30
0.0
 11
230.7654478852
 21
221.0790942406
 31
0.0
  0
LINE
  5
86
330
1F
100
AcDbEntity
  8
0
  6
Continuous
 62
     7
370
    15
100
AcDbLine
 10
230.7654478852
 20
221.0790942406
 30
0.0
 11
230.7654478852
 21
227.0790942406
 31
0.0
  0
LINE
  5
87
330
1F
100
AcDbEntity
  8
0
  6
Continuous
 62
     7
370
    15
100
AcDbLine
 10
255.7654478852
 20
250.0790942406
 30
0.0
 11
55.7654478852
 21
250.0790942406
 31
0.0
  0
LINE
  5
88
330
1F
100
AcDbEntity
  8
0
  6
Continuous
 62
     7
370
    15
100
AcDbLine
 10
255.7654478852
 20
50.0790942406
 30
0.0
 11
255.7654478852
 21
250.0790942406
 31
0.0
  0
LINE
  5
89
330
1F
100
AcDbEntity
  8
0
  6
Continuous
 62
     7
370
    15
100
AcDbLine
 10
55.7654478852
 20
50.0790942406
 30
0.0
 11
255.7654478852
 21
50.0790942406
 31
0.0
  0
LINE
  5
8A
330
1F
100
AcDbEntity
  8
0
  6
Continuous
 62
     7
370
    15
100
AcDbLine
 10
55.7654478852
 20
250.0790942406
 30
0.0
 11
55.7654478852
 21
50.0790942406
 31
0.0
  0
LINE
  5
8B
330
1F
100
AcDbEntity
  8
0
  6
Continuous
 62
     7
370
    15
100
AcDbLine
 10
230.7654478852
 20
245.0790942406
 30
0.0
 11
224.7654478852
 21
245.0790942406
 31
0.0
  0
LINE
  5
8C
330
1F
100
AcDbEntity
  8
0
  6
Continuous
 62
     7
370
    15
100
AcDbLine
 10
224.7654478852
 20
245.0790942406
 30
0.0
 11
224.7654478852
 21
239.0790942406
 31
0.0
  0
LINE
  5
8D
330
1F
100
AcDbEntity
  8
0
  6
Continuous
 62
     7
370
    15
100
AcDbLine
 10
224.7654478852
 20
239.0790942406
 30
0.0
 11
230.7654478852
 21
239.0790942406
 31
0.0
  0
LINE
  5
8E
330
1F
100
AcDbEntity
  8
0
  6
Continuous
 62
     7
370
    15
100
AcDbLine
 10
230.7654478852
 20
239.0790942406
 30
0.0
 11
230.7654478852
 21
245.0790942406
 31
0.0
  0
LINE
  5
8F
330
1F
100
AcDbEntity
  8
0
  6
Continuous
 62
     7
370
    15
100
AcDbLine
 10
194.7654478852
 20
245.0790942406
 30
0.0
 11
188.7654478852
 21
245.0790942406
 31
0.0
  0
LINE
  5
90
330
1F
100
AcDbEntity
  8
0
  6
Continuous
 62
     7
370
    15
100
AcDbLine
 10
188.7654478852
 20
245.0790942406
 30
0.0
 11
188.7654478852
 21
239.0790942406
 31
0.0
  0
LINE
  5
91
330
1F
100
AcDbEntity
  8
0
  6
Continuous
 62
     7
370
    15
100
AcDbLine
 10
188.7654478852
 20
239.0790942406
 30
0.0
 11
194.7654478852
 21
239.0790942406
 31
0.0
  0
LINE
  5
92
330
1F
100
AcDbEntity
  8
0
  6
Continuous
 62
     7
370
    15
100
AcDbLine
 10
194.7654478852
 20
239.0790942406
 30
0.0
 11
194.7654478852
 21
245.0790942406
 31
0.0
  0
LINE
  5
93
330
1F
100
AcDbEntity
  8
0
  6
Continuous
 62
     7
370
    15
100
AcDbLine
 10
158.7654478852
 20
245.0790942406
 30
0.0
 11
152.7654478852
 21
245.0790942406
 31
0.0
  0
LINE
  5
94
330
1F
100
AcDbEntity
  8
0
  6
Continuous
 62
     7
370
    15
100
AcDbLine
 10
152.7654478852
 20
245.0790942406
 30
0.0
 11
152.7654478852
 21
239.0790942406
 31
0.0
  0
LINE
  5
95
330
1F
100
AcDbEntity
  8
0
  6
Continuous
 62
     7
370
    15
100
AcDbLine
 10
152.7654478852
 20
239.0790942406
 30
0.0
 11
158.7654478852
 21
239.0790942406
 31
0.0
  0
LINE
  5
96
330
1F
100
AcDbEntity
  8
0
  6
Continuous
 62
     7
370
    15
100
AcDbLine
 10
158.7654478852
 20
239.0790942406
 30
0.0
 11
158.7654478852
 21
245.0790942406
 31
0.0
  0
LINE
  5
97
330
1F
100
AcDbEntity
  8
0
  6
Continuous
 62
     7
370
    15
100
AcDbLine
 10
122.7654478852
 20
245.0790942406
 30
0.0
 11
116.7654478852
 21
245.0790942406
 31
0.0
  0
LINE
  5
98
330
1F
100
AcDbEntity
  8
0
  6
Continuous
 62
     7
370
    15
100
AcDbLine
 10
116.7654478852
 20
245.0790942406
 30
0.0
 11
116.7654478852
 21
239.0790942406
 31
0.0
  0
LINE
  5
99
330
1F
100
AcDbEntity
  8
0
  6
Continuous
 62
     7
370
    15
100
AcDbLine
 10
116.7654478852
 20
239.0790942406
 30
0.0
 11
122.7654478852
 21
239.0790942406
 31
0.0
  0
LINE
  5
9A
330
1F
100
AcDbEntity
  8
0
  6
Continuous
 62
     7
370
    15
100
AcDbLine
 10
122.7654478852
 20
239.0790942406
 30
0.0
 11
122.7654478852
 21
245.0790942406
 31
0.0
  0
LINE
  5
9B
330
1F
100
AcDbEntity
  8
0
  6
Continuous
 62
     7
370
    15
100
AcDbLine
 10
86.7654478852
 20
245.0790942406
 30
0.0
 11
80.7654478852
 21
245.0790942406
 31
0.0
  0
LINE
  5
9C
330
1F
100
AcDbEntity
  8
0
  6
Continuous
 62
     7
370
    15
100
AcDbLine
 10
80.7654478852
 20
245.0790942406
 30
0.0
 11
80.7654478852
 21
239.0790942406
 31
0.0
  0
LINE
  5
9D
330
1F
100
AcDbEntity
  8
0
  6
Continuous
 62
     7
370
    15
100
AcDbLine
 10
80.7654478852
 20
239.0790942406
 30
0.0
 11
86.7654478852
 21
239.0790942406
 31
0.0
  0
LINE
  5
9E
330
1F
100
AcDbEntity
  8
0
  6
Continuous
 62
     7
370
    15
100
AcDbLine
 10
86.7654478852
 20
239.0790942406
 30
0.0
 11
86.7654478852
 21
245.0790942406
 31
0.0
  0
LINE
  5
9F
330
1F
100
AcDbEntity
  8
0
  6
Continuous
 62
     7
370
    15
100
AcDbLine
 10
47.8496381934
 20
147.7882562314
 30
0.0
 11
47.8496381934
 21
217.7882562314
 31
0.0
  0
LINE
  5
A0
330
1F
100
AcDbEntity
  8
0
  6
Continuous
 62
     7
370
    15
100
AcDbLine
 10
27.8496381934
 20
147.7882562314
 30
0.0
 11
47.8496381934
 21
147.7882562314
 31
0.0
  0
LINE
  5
A1
330
1F
100
AcDbEntity
  8
0
  6
Continuous
 62
     7
370
    15
100
AcDbLine
 10
27.8496381934
 20
141.7882562314
 30
0.0
 11
27.8496381934
 21
147.7882562314
 31
0.0
  0
LINE
  5
A2
330
1F
100
AcDbEntity
  8
0
  6
Continuous
 62
     7
370
    15
100
AcDbLine
 10
47.8496381934
 20
141.7882562314
 30
0.0
 11
27.8496381934
 21
141.7882562314
 31
0.0
  0
LINE
  5
A3
330
1F
100
AcDbEntity
  8
0
  6
Continuous
 62
     7
370
    15
100
AcDbLine
 10
47.8496381934
 20
103.7882562314
 30
0.0
 11
47.8496381934
 21
141.7882562314
 31
0.0
  0
LINE
  5
A4
330
1F
100
AcDbEntity
  8
0
  6
Continuous
 62
     7
370
    15
100
AcDbLine
 10
27.8496381934
 20
103.7882562314
 30
0.0
 11
47.8496381934
 21
103.7882562314
 31
0.0
  0
LINE
  5
A5
330
1F
100
AcDbEntity
  8
0
  6
Continuous
 62
     7
370
    15
100
AcDbLine
 10
27.8496381934
 20
97.7882562314
 30
0.0
 11
27.8496381934
 21
103.7882562314
 31
0.0
  0
LINE
  5
A6
330
1F
100
AcDbEntity
  8
0
  6
Continuous
 62
     7
370
    15
100
AcDbLine
 10
47.8496381934
 20
97.7882562314
 30
0.0
 11
27.8496381934
 21
97.7882562314
 31
0.0
  0
LINE
  5
A7
330
1F
100
AcDbEntity
  8
0
  6
Continuous
 62
     7
370
    15
100
AcDbLine
 10
47.8496381934
 20
87.7882562314
 30
0.0
 11
47.8496381934
 21
97.7882562314
 31
0.0
  0
LINE
  5
A8
330
1F
100
AcDbEntity
  8
0
  6
Continuous
 62
     7
370
    15
100
AcDbLine
 10
44.8496381934
 20
87.7882562314
 30
0.0
 11
47.8496381934
 21
87.7882562314
 31
0.0
  0
LINE
  5
A9
330
1F
100
AcDbEntity
  8
0
  6
Continuous
 62
     7
370
    15
100
AcDbLine
 10
44.8496381934
 20
81.7882562314
 30
0.0
 11
44.8496381934
 21
87.7882562314
 31
0.0
  0
LINE
  5
AA
330
1F
100
AcDbEntity
  8
0
  6
Continuous
 62
     7
370
    15
100
AcDbLine
 10
38.8496381934
 20
81.7882562314
 30
0.0
 11
44.8496381934
 21
81.7882562314
 31
0.0
  0
LINE
  5
AB
330
1F
100
AcDbEntity
  8
0
  6
Continuous
 62
     7
370
    15
100
AcDbLine
 10
38.8496381934
 20
87.7882562314
 30
0.0
 11
38.8496381934
 21
81.7882562314
 31
0.0
  0
LINE
  5
AC
330
1F
100
AcDbEntity
  8
0
  6
Continuous
 62
     7
370
    15
100
AcDbLine
 10
16.8496381934
 20
87.7882562314
 30
0.0
 11
38.8496381934
 21
87.7882562314
 31
0.0
  0
LINE
  5
AD
330
1F
100
AcDbEntity
  8
0
  6
Continuous
 62
     7
370
    15
100
AcDbLine
 10
16.8496381934
 20
81.7882562314
 30
0.0
 11
16.8496381934
 21
87.7882562314
 31
0.0
  0
LINE
  5
AE
330
1F
100
AcDbEntity
  8
0
  6
Continuous
 62
     7
370
    15
100
AcDbLine
 10
10.8496381934
 20
81.7882562314
 30
0.0
 11
16.8496381934
 21
81.7882562314
 31
0.0
  0
LINE
  5
AF
330
1F
100
AcDbEntity
  8
0
  6
Continuous
 62
     7
370
    15
100
AcDbLine
 10
10.8496381934
 20
87.7882562314
 30
0.0
 11
10.8496381934
 21
81.7882562314
 31
0.0
  0
LINE
  5
B0
330
1F
100
AcDbEntity
  8
0
  6
Continuous
 62
     7
370
    15
100
AcDbLine
 10
7.8496381934
 20
87.7882562314
 30
0.0
 11
10.8496381934
 21
87.7882562314
 31
0.0
  0
LINE
  5
B1
330
1F
100
AcDbEntity
  8
0
  6
Continuous
 62
     7
370
    15
100
AcDbLine
 10
7.8496381934
 20
187.7882562314
 30
0.0
 11
7.8496381934
 21
87.7882562314
 31
0.0
  0
SPLINE
  5
B2
330
1F
100
AcDbEntity
  8
0
  6
Continuous
 62
     7
370
    15
100
AcDbSpline
210
0.0
220
0.0
230
1.0
 70
     8
 71
     3
 72
    38
 73
    34
 74
     0
 42
0.000000001
 43
0.00000001
 40
0.0
 40
0.0
 40
0.0
 40
0.0
 40
0.0624999999999999
 40
0.0624999999999999
 40
0.1249999999999999
 40
0.1249999999999999
 40
0.1874999999999998
 40
0.1874999999999998
 40
0.2499999999999997
 40
0.2499999999999997
 40
0.3124999999999997
 40
0.3124999999999997
 40
0.3749999999999996
 40
0.3749999999999996
 40
0.4374999999999995
 40
0.4374999999999995
 40
0.4999999999999994
 40
0.4999999999999994
 40
0.5624999999999994
 40
0.5624999999999994
 40
0.6249999999999996
 40
0.6249999999999996
 40
0.6874999999999994
 40
0.6874999999999994
 40
0.7499999999999993
 40
0.7499999999999993
 40
0.8124999999999996
 40
0.8124999999999996
 40
0.8749999999999997
 40
0.8749999999999997
 40
0.9374999999999999
 40
0.9374999999999999
 40
1.0
 40
1.0
 40
1.0
 40
1.0
 10
32.84963819336775
 20
217.7882562314293
 30
0.0
 10
31.64209814034306
 20
217.7882562314293
 30
0.0
 10
30.50939975238249
 20
217.6940103514954
 30
0.0
 10
28.48538188745922
 20
217.2911048884176
 30
0.0
 10
27.5936619429315
 20
216.9826348068194
 30
0.0
 10
26.08177177584175
 20
216.1537787006988
 30
0.0
 10
25.46120108571474
 20
215.6335821777221
 30
0.0
 10
24.47307043057288
 20
214.4061266032936
 30
0.0
 10
24.10510999799305
 20
213.6990570533874
 30
0.0
 10
23.56696508022119
 20
212.1393794473388
 30
0.0
 10
23.39638012746415
 20
211.2869608927421
 30
0.0
 10
23.17306963769288
 20
209.4890948609678
 30
0.0
 10
23.11994363311362
 20
208.5438368853361
 30
0.0
 10
23.03896678108283
 20
206.6181021101903
 30
0.0
 10
23.01071546606628
 20
205.637814812222
 30
0.0
 10
22.88625003452604
 20
203.6994469597719
 30
0.0
 10
22.78963545043736
 20
202.7415559068357
 30
0.0
 10
22.44656584904866
 20
200.8993365341146
 30
0.0
 10
22.19971036418362
 20
200.0151977158755
 30
0.0
 10
21.49765568341913
 20
198.3600841781366
 30
0.0
 10
21.04205601995466
 20
197.5892989601827
 30
0.0
 10
19.89939808499961
 20
196.1830543181521
 30
0.0
 10
19.21193934594402
 20
195.5477843956212
 30
0.0
 10
17.62985077059696
 20
194.4116073227514
 30
0.0
 10
16.73482046674046
 20
193.9108896739581
 30
0.0
 10
14.82129270731408
 20
193.0140443636807
 30
0.0
 10
13.80239478417914
 20
192.6181062037425
 30
0.0
 10
11.79626619340098
 20
191.8665522767225
 30
0.0
 10
10.80863505819277
 20
191.5111260111865
 30
0.0
 10
9.103618939106225
 20
190.7361484225748
 30
0.0
 10
8.385833487662865
 20
190.3167866010449
 30
0.0
 10
7.55454614752777
 20
189.2636255477319
 30
0.0
 10
7.440643791270962
 20
188.6300158174948
 30
0.0
 10
7.849638193367737
 20
187.7882562314293
 30
0.0
  0
LINE
  5
B3
330
1F
100
AcDbEntity
  8
0
  6
Continuous
 62
     7
370
    15
100
AcDbLine
 10
47.8496381934
 20
217.7882562314
 30
0.0
 11
32.8496381934
 21
217.7882562314
 31
0.0
  0
LINE
  5
B4
330
1F
100
AcDbEntity
  8
0
  6
Continuous
 62
     7
370
    15
100
AcDbLine
 10
315.4093090629
 20
152.637757768
 30
0.0
 11
315.4093090629
 21
222.637757768
 31
0.0
  0
LINE
  5
B5
330
1F
100
AcDbEntity
  8
0
  6
Continuous
 62
     7
370
    15
100
AcDbLine
 10
295.4093090629
 20
152.637757768
 30
0.0
 11
315.4093090629
 21
152.637757768
 31
0.0
  0
LINE
  5
B6
330
1F
100
AcDbEntity
  8
0
  6
Continuous
 62
     7
370
    15
100
AcDbLine
 10
295.4093090629
 20
146.637757768
 30
0.0
 11
295.4093090629
 21
152.637757768
 31
0.0
  0
LINE
  5
B7
330
1F
100
AcDbEntity
  8
0
  6
Continuous
 62
     7
370
    15
100
AcDbLine
 10
315.4093090629
 20
146.637757768
 30
0.0
 11
295.4093090629
 21
146.637757768
 31
0.0
  0
LINE
  5
B8
330
1F
100
AcDbEntity
  8
0
  6
Continuous
 62
     7
370
    15
100
AcDbLine
 10
315.4093090629
 20
108.637757768
 30
0.0
 11
315.4093090629
 21
146.637757768
 31
0.0
  0
LINE
  5
B9
330
1F
100
AcDbEntity
  8
0
  6
Continuous
 62
     7
370
    15
100
AcDbLine
 10
295.4093090629
 20
108.637757768
 30
0.0
 11
315.4093090629
 21
108.637757768
 31
0.0
  0
LINE
  5
BA
330
1F
100
AcDbEntity
  8
0
  6
Continuous
 62
     7
370
    15
100
AcDbLine
 10
295.4093090629
 20
102.637757768
 30
0.0
 11
295.4093090629
 21
108.637757768
 31
0.0
  0
LINE
  5
BB
330
1F
100
AcDbEntity
  8
0
  6
Continuous
 62
     7
370
    15
100
AcDbLine
 10
315.4093090629
 20
102.637757768
 30
0.0
 11
295.4093090629
 21
102.637757768
 31
0.0
  0
LINE
  5
BC
330
1F
100
AcDbEntity
  8
0
  6
Continuous
 62
     7
370
    15
100
AcDbLine
 10
315.4093090629
 20
92.637757768
 30
0.0
 11
315.4093090629
 21
102.637757768
 31
0.0
  0
LINE
  5
BD
330
1F
100
AcDbEntity
  8
0
  6
Continuous
 62
     7
370
    15
100
AcDbLine
 10
312.4093090629
 20
92.637757768
 30
0.0
 11
315.4093090629
 21
92.637757768
 31
0.0
  0
LINE
  5
BE
330
1F
100
AcDbEntity
  8
0
  6
Continuous
 62
     7
370
    15
100
AcDbLine
 10
312.4093090629
 20
86.637757768
 30
0.0
 11
312.4093090629
 21
92.637757768
 31
0.0
  0
LINE
  5
BF
330
1F
100
AcDbEntity
  8
0
  6
Continuous
 62
     7
370
    15
100
AcDbLine
 10
306.4093090629
 20
86.637757768
 30
0.0
 11
312.4093090629
 21
86.637757768
 31
0.0
  0
LINE
  5
C0
330
1F
100
AcDbEntity
  8
0
  6
Continuous
 62
     7
370
    15
100
AcDbLine
 10
306.4093090629
 20
92.637757768
 30
0.0
 11
306.4093090629
 21
86.637757768
 31
0.0
  0
LINE
  5
C1
330
1F
100
AcDbEntity
  8
0
  6
Continuous
 62
     7
370
    15
100
AcDbLine
 10
284.4093090629
 20
92.637757768
 30
0.0
 11
306.4093090629
 21
92.637757768
 31
0.0
  0
LINE
  5
C2
330
1F
100
AcDbEntity
  8
0
  6
Continuous
 62
     7
370
    15
100
AcDbLine
 10
284.4093090629
 20
86.637757768
 30
0.0
 11
284.4093090629
 21
92.637757768
 31
0.0
  0
LINE
  5
C3
330
1F
100
AcDbEntity
  8
0
  6
Continuous
 62
     7
370
    15
100
AcDbLine
 10
278.4093090629
 20
86.637757768
 30
0.0
 11
284.4093090629
 21
86.637757768
 31
0.0
  0
LINE
  5
C4
330
1F
100
AcDbEntity
  8
0
  6
Continuous
 62
     7
370
    15
100
AcDbLine
 10
278.4093090629
 20
92.637757768
 30
0.0
 11
278.4093090629
 21
86.637757768
 31
0.0
  0
LINE
  5
C5
330
1F
100
AcDbEntity
  8
0
  6
Continuous
 62
     7
370
    15
100
AcDbLine
 10
275.4093090629
 20
92.637757768
 30
0.0
 11
278.4093090629
 21
92.637757768
 31
0.0
  0
LINE
  5
C6
330
1F
100
AcDbEntity
  8
0
  6
Continuous
 62
     7
370
    15
100
AcDbLine
 10
275.4093090629
 20
192.637757768
 30
0.0
 11
275.4093090629
 21
92.637757768
 31
0.0
  0
SPLINE
  5
C7
330
1F
100
AcDbEntity
  8
0
  6
Continuous
 62
     7
370
    15
100
AcDbSpline
210
0.0
220
0.0
230
1.0
 70
     8
 71
     3
 72
    38
 73
    34
 74
     0
 42
0.000000001
 43
0.00000001
 40
0.0
 40
0.0
 40
0.0
 40
0.0
 40
0.0624999999999999
 40
0.0624999999999999
 40
0.1249999999999999
 40
0.1249999999999999
 40
0.1874999999999998
 40
0.1874999999999998
 40
0.2499999999999997
 40
0.2499999999999997
 40
0.3124999999999997
 40
0.3124999999999997
 40
0.3749999999999996
 40
0.3749999999999996
 40
0.4374999999999995
 40
0.4374999999999995
 40
0.4999999999999994
 40
0.4999999999999994
 40
0.5624999999999994
 40
0.5624999999999994
 40
0.6249999999999996
 40
0.6249999999999996
 40
0.6874999999999994
 40
0.6874999999999994
 40
0.7499999999999993
 40
0.7499999999999993
 40
0.8124999999999996
 40
0.8124999999999996
 40
0.8749999999999997
 40
0.8749999999999997
 40
0.9374999999999999
 40
0.9374999999999999
 40
1.0
 40
1.0
 40
1.0
 40
1.0
 10
300.4093090628921
 20
222.6377577680003
 30
0.0
 10
299.2017690098675
 20
222.6377577680003
 30
0.0
 10
298.0690706219069
 20
222.5435118880665
 30
0.0
 10
296.0450527569836
 20
222.1406064249886
 30
0.0
 10
295.1533328124559
 20
221.8321363433904
 30
0.0
 10
293.6414426453662
 20
221.0032802372698
 30
0.0
 10
293.0208719552391
 20
220.4830837142931
 30
0.0
 10
292.0327413000973
 20
219.2556281398646
 30
0.0
 10
291.6647808675174
 20
218.5485585899584
 30
0.0
 10
291.1266359497456
 20
216.9888809839098
 30
0.0
 10
290.9560509969886
 20
216.1364624293132
 30
0.0
 10
290.7327405072173
 20
214.3385963975389
 30
0.0
 10
290.679614502638
 20
213.3933384219071
 30
0.0
 10
290.5986376506072
 20
211.4676036467613
 30
0.0
 10
290.5703863355907
 20
210.4873163487931
 30
0.0
 10
290.4459209040505
 20
208.5489484963429
 30
0.0
 10
290.3493063199617
 20
207.5910574434068
 30
0.0
 10
290.0062367185731
 20
205.7488380706857
 30
0.0
 10
289.759381233708
 20
204.8646992524465
 30
0.0
 10
289.0573265529436
 20
203.2095857147077
 30
0.0
 10
288.601726889479
 20
202.4388004967537
 30
0.0
 10
287.459068954524
 20
201.0325558547231
 30
0.0
 10
286.7716102154685
 20
200.3972859321923
 30
0.0
 10
285.1895216401214
 20
199.2611088593224
 30
0.0
 10
284.2944913362649
 20
198.7603912105291
 30
0.0
 10
282.3809635768385
 20
197.8635459002518
 30
0.0
 10
281.3620656537036
 20
197.4676077403135
 30
0.0
 10
279.3559370629254
 20
196.7160538132935
 30
0.0
 10
278.3683059277172
 20
196.3606275477576
 30
0.0
 10
276.6632898086306
 20
195.5856499591459
 30
0.0
 10
275.9455043571873
 20
195.1662881376159
 30
0.0
 10
275.1142170170522
 20
194.113127084303
 30
0.0
 10
275.0003146607954
 20
193.4795173540658
 30
0.0
 10
275.4093090628921
 20
192.6377577680003
 30
0.0
  0
LINE
  5
C8
330
1F
100
AcDbEntity
  8
0
  6
Continuous
 62
     7
370
    15
100
AcDbLine
 10
315.4093090629
 20
222.637757768
 30
0.0
 11
300.4093090629
 21
222.637757768
 31
0.0
  0
LINE
  5
C9
330
1F
100
AcDbEntity
  8
0
  6
Continuous
 62
     7
370
    15
100
AcDbLine
 10
46.6941674836
 20
291.784225123
 30
0.0
 11
46.6941674836
 21
361.784225123
 31
0.0
  0
LINE
  5
CA
330
1F
100
AcDbEntity
  8
0
  6
Continuous
 62
     7
370
    15
100
AcDbLine
 10
26.6941674836
 20
291.784225123
 30
0.0
 11
46.6941674836
 21
291.784225123
 31
0.0
  0
LINE
  5
CB
330
1F
100
AcDbEntity
  8
0
  6
Continuous
 62
     7
370
    15
100
AcDbLine
 10
26.6941674836
 20
285.784225123
 30
0.0
 11
26.6941674836
 21
291.784225123
 31
0.0
  0
LINE
  5
CC
330
1F
100
AcDbEntity
  8
0
  6
Continuous
 62
     7
370
    15
100
AcDbLine
 10
46.6941674836
 20
285.784225123
 30
0.0
 11
26.6941674836
 21
285.784225123
 31
0.0
  0
LINE
  5
CD
330
1F
100
AcDbEntity
  8
0
  6
Continuous
 62
     7
370
    15
100
AcDbLine
 10
46.6941674836
 20
247.784225123
 30
0.0
 11
46.6941674836
 21
285.784225123
 31
0.0
  0
LINE
  5
CE
330
1F
100
AcDbEntity
  8
0
  6
Continuous
 62
     7
370
    15
100
AcDbLine
 10
26.6941674836
 20
247.784225123
 30
0.0
 11
46.6941674836
 21
247.784225123
 31
0.0
  0
LINE
  5
CF
330
1F
100
AcDbEntity
  8
0
  6
Continuous
 62
     7
370
    15
100
AcDbLine
 10
26.6941674836
 20
241.784225123
 30
0.0
 11
26.6941674836
 21
247.784225123
 31
0.0
  0
LINE
  5
D0
330
1F
100
AcDbEntity
  8
0
  6
Continuous
 62
     7
370
    15
100
AcDbLine
 10
46.6941674836
 20
241.784225123
 30
0.0
 11
26.6941674836
 21
241.784225123
 31
0.0
  0
LINE
  5
D1
330
1F
100
AcDbEntity
  8
0
  6
Continuous
 62
     7
370
    15
100
AcDbLine
 10
46.6941674836
 20
231.784225123
 30
0.0
 11
46.6941674836
 21
241.784225123
 31
0.0
  0
LINE
  5
D2
330
1F
100
AcDbEntity
  8
0
  6
Continuous
 62
     7
370
    15
100
AcDbLine
 10
43.6941674836
 20
231.784225123
 30
0.0
 11
46.6941674836
 21
231.784225123
 31
0.0
  0
LINE
  5
D3
330
1F
100
AcDbEntity
  8
0
  6
Continuous
 62
     7
370
    15
100
AcDbLine
 10
43.6941674836
 20
225.784225123
 30
0.0
 11
43.6941674836
 21
231.784225123
 31
0.0
  0
LINE
  5
D4
330
1F
100
AcDbEntity
  8
0
  6
Continuous
 62
     7
370
    15
100
AcDbLine
 10
37.6941674836
 20
225.784225123
 30
0.0
 11
43.6941674836
 21
225.784225123
 31
0.0
  0
LINE
  5
D5
330
1F
100
AcDbEntity
  8
0
  6
Continuous
 62
     7
370
    15
100
AcDbLine
 10
37.6941674836
 20
231.784225123
 30
0.0
 11
37.6941674836
 21
225.784225123
 31
0.0
  0
LINE
  5
D6
330
1F
100
AcDbEntity
  8
0
  6
Continuous
 62
     7
370
    15
100
AcDbLine
 10
15.6941674836
 20
231.784225123
 30
0.0
 11
37.6941674836
 21
231.784225123
 31
0.0
  0
LINE
  5
D7
330
1F
100
AcDbEntity
  8
0
  6
Continuous
 62
     7
370
    15
100
AcDbLine
 10
15.6941674836
 20
225.784225123
 30
0.0
 11
15.6941674836
 21
231.784225123
 31
0.0
  0
LINE
  5
D8
330
1F
100
AcDbEntity
  8
0
  6
Continuous
 62
     7
370
    15
100
AcDbLine
 10
9.6941674836
 20
225.784225123
 30
0.0
 11
15.6941674836
 21
225.784225123
 31
0.0
  0
LINE
  5
D9
330
1F
100
AcDbEntity
  8
0
  6
Continuous
 62
     7
370
    15
100
AcDbLine
 10
9.6941674836
 20
231.784225123
 30
0.0
 11
9.6941674836
 21
225.784225123
 31
0.0
  0
LINE
  5
DA
330
1F
100
AcDbEntity
  8
0
  6
Continuous
 62
     7
370
    15
100
AcDbLine
 10
6.6941674836
 20
231.784225123
 30
0.0
 11
9.6941674836
 21
231.784225123
 31
0.0
  0
LINE
  5
DB
330
1F
100
AcDbEntity
  8
0
  6
Continuous
 62
     7
370
    15
100
AcDbLine
 10
6.6941674836
 20
331.784225123
 30
0.0
 11
6.6941674836
 21
231.784225123
 31
0.0
  0
SPLINE
  5
DC
330
1F
100
AcDbEntity
  8
0
  6
Continuous
 62
     7
370
    15
100
AcDbSpline
210
0.0
220
0.0
230
1.0
 70
     8
 71
     3
 72
    38
 73
    34
 74
     0
 42
0.000000001
 43
0.00000001
 40
0.0
 40
0.0
 40
0.0
 40
0.0
 40
0.0624999999999999
 40
0.0624999999999999
 40
0.1249999999999999
 40
0.1249999999999999
 40
0.1874999999999998
 40
0.1874999999999998
 40
0.2499999999999997
 40
0.2499999999999997
 40
0.3124999999999997
 40
0.3124999999999997
 40
0.3749999999999996
 40
0.3749999999999996
 40
0.4374999999999995
 40
0.4374999999999995
 40
0.4999999999999994
 40
0.4999999999999994
 40
0.5624999999999994
 40
0.5624999999999994
 40
0.6249999999999996
 40
0.6249999999999996
 40
0.6874999999999994
 40
0.6874999999999994
 40
0.7499999999999993
 40
0.7499999999999993
 40
0.8124999999999996
 40
0.8124999999999996
 40
0.8749999999999997
 40
0.8749999999999997
 40
0.9374999999999999
 40
0.9374999999999999
 40
1.0
 40
1.0
 40
1.0
 40
1.0
 10
31.69416748360825
 20
361.7842251230032
 30
0.0
 10
30.48662743058356
 20
361.7842251230032
 30
0.0
 10
29.35392904262299
 20
361.6899792430693
 30
0.0
 10
27.32991117769972
 20
361.2870737799915
 30
0.0
 10
26.43819123317201
 20
360.9786036983933
 30
0.0
 10
24.92630106608226
 20
360.1497475922728
 30
0.0
 10
24.30573037595524
 20
359.629551069296
 30
0.0
 10
23.31759972081339
 20
358.4020954948675
 30
0.0
 10
22.94963928823356
 20
357.6950259449614
 30
0.0
 10
22.4114943704617
 20
356.1353483389128
 30
0.0
 10
22.24090941770466
 20
355.2829297843161
 30
0.0
 10
22.01759892793339
 20
353.4850637525418
 30
0.0
 10
21.96447292335413
 20
352.53980577691
 30
0.0
 10
21.88349607132334
 20
350.6140710017642
 30
0.0
 10
21.85524475630679
 20
349.633783703796
 30
0.0
 10
21.73077932476655
 20
347.6954158513458
 30
0.0
 10
21.63416474067787
 20
346.7375247984097
 30
0.0
 10
21.29109513928916
 20
344.8953054256886
 30
0.0
 10
21.04423965442413
 20
344.0111666074495
 30
0.0
 10
20.34218497365963
 20
342.3560530697106
 30
0.0
 10
19.88658531019516
 20
341.5852678517566
 30
0.0
 10
18.74392737524012
 20
340.179023209726
 30
0.0
 10
18.05646863618453
 20
339.5437532871952
 30
0.0
 10
16.47438006083747
 20
338.4075762143253
 30
0.0
 10
15.57934975698097
 20
337.906858565532
 30
0.0
 10
13.66582199755458
 20
337.0100132552547
 30
0.0
 10
12.64692407441965
 20
336.6140750953164
 30
0.0
 10
10.64079548364148
 20
335.8625211682964
 30
0.0
 10
9.653164348433274
 20
335.5070949027605
 30
0.0
 10
7.948148229346732
 20
334.7321173141488
 30
0.0
 10
7.230362777903371
 20
334.3127554926189
 30
0.0
 10
6.399075437768277
 20
333.2595944393059
 30
0.0
 10
6.285173081511469
 20
332.6259847090687
 30
0.0
 10
6.694167483608244
 20
331.7842251230032
 30
0.0
  0
LINE
  5
DD
330
1F
100
AcDbEntity
  8
0
  6
Continuous
 62
     7
370
    15
100
AcDbLine
 10
46.6941674836
 20
361.784225123
 30
0.0
 11
31.6941674836
 21
361.784225123
 31
0.0
  0
LINE
  5
DE
330
1F
100
AcDbEntity
  8
0
  6
Continuous
 62
     7
370
    15
100
AcDbLine
 10
318.4769798122
 20
295.9971288995
 30
0.0
 11
318.4769798122
 21
365.9971288995
 31
0.0
  0
LINE
  5
DF
330
1F
100
AcDbEntity
  8
0
  6
Continuous
 62
     7
370
    15
100
AcDbLine
 10
298.4769798122
 20
295.9971288995
 30
0.0
 11
318.4769798122
 21
295.9971288995
 31
0.0
  0
LINE
  5
E0
330
1F
100
AcDbEntity
  8
0
  6
Continuous
 62
     7
370
    15
100
AcDbLine
 10
298.4769798122
 20
289.9971288995
 30
0.0
 11
298.4769798122
 21
295.9971288995
 31
0.0
  0
LINE
  5
E1
330
1F
100
AcDbEntity
  8
0
  6
Continuous
 62
     7
370
    15
100
AcDbLine
 10
318.4769798122
 20
289.9971288995
 30
0.0
 11
298.4769798122
 21
289.9971288995
 31
0.0
  0
LINE
  5
E2
330
1F
100
AcDbEntity
  8
0
  6
Continuous
 62
     7
370
    15
100
AcDbLine
 10
318.4769798122
 20
251.9971288995
 30
0.0
 11
318.4769798122
 21
289.9971288995
 31
0.0
  0
LINE
  5
E3
330
1F
100
AcDbEntity
  8
0
  6
Continuous
 62
     7
370
    15
100
AcDbLine
 10
298.4769798122
 20
251.9971288995
 30
0.0
 11
318.4769798122
 21
251.9971288995
 31
0.0
  0
LINE
  5
E4
330
1F
100
AcDbEntity
  8
0
  6
Continuous
 62
     7
370
    15
100
AcDbLine
 10
298.4769798122
 20
245.9971288995
 30
0.0
 11
298.4769798122
 21
251.9971288995
 31
0.0
  0
LINE
  5
E5
330
1F
100
AcDbEntity
  8
0
  6
Continuous
 62
     7
370
    15
100
AcDbLine
 10
318.4769798122
 20
245.9971288995
 30
0.0
 11
298.4769798122
 21
245.9971288995
 31
0.0
  0
LINE
  5
E6
330
1F
100
AcDbEntity
  8
0
  6
Continuous
 62
     7
370
    15
100
AcDbLine
 10
318.4769798122
 20
235.9971288995
 30
0.0
 11
318.4769798122
 21
245.9971288995
 31
0.0
  0
LINE
  5
E7
330
1F
100
AcDbEntity
  8
0
  6
Continuous
 62
     7
370
    15
100
AcDbLine
 10
315.4769798122
 20
235.9971288995
 30
0.0
 11
318.4769798122
 21
235.9971288995
 31
0.0
  0
LINE
  5
E8
330
1F
100
AcDbEntity
  8
0
  6
Continuous
 62
     7
370
    15
100
AcDbLine
 10
315.4769798122
 20
229.9971288995
 30
0.0
 11
315.4769798122
 21
235.9971288995
 31
0.0
  0
LINE
  5
E9
330
1F
100
AcDbEntity
  8
0
  6
Continuous
 62
     7
370
    15
100
AcDbLine
 10
309.4769798122
 20
229.9971288995
 30
0.0
 11
315.4769798122
 21
229.9971288995
 31
0.0
  0
LINE
  5
EA
330
1F
100
AcDbEntity
  8
0
  6
Continuous
 62
     7
370
    15
100
AcDbLine
 10
309.4769798122
 20
235.9971288995
 30
0.0
 11
309.4769798122
 21
229.9971288995
 31
0.0
  0
LINE
  5
EB
330
1F
100
AcDbEntity
  8
0
  6
Continuous
 62
     7
370
    15
100
AcDbLine
 10
287.4769798122
 20
235.9971288995
 30
0.0
 11
309.4769798122
 21
235.9971288995
 31
0.0
  0
LINE
  5
EC
330
1F
100
AcDbEntity
  8
0
  6
Continuous
 62
     7
370
    15
100
AcDbLine
 10
287.4769798122
 20
229.9971288995
 30
0.0
 11
287.4769798122
 21
235.9971288995
 31
0.0
  0
LINE
  5
ED
330
1F
100
AcDbEntity
  8
0
  6
Continuous
 62
     7
370
    15
100
AcDbLine
 10
281.4769798122
 20
229.9971288995
 30
0.0
 11
287.4769798122
 21
229.9971288995
 31
0.0
  0
LINE
  5
EE
330
1F
100
AcDbEntity
  8
0
  6
Continuous
 62
     7
370
    15
100
AcDbLine
 10
281.4769798122
 20
235.9971288995
 30
0.0
 11
281.4769798122
 21
229.9971288995
 31
0.0
  0
LINE
  5
EF
330
1F
100
AcDbEntity
  8
0
  6
Continuous
 62
     7
370
    15
100
AcDbLine
 10
278.4769798122
 20
235.9971288995
 30
0.0
 11
281.4769798122
 21
235.9971288995
 31
0.0
  0
LINE
  5
F0
330
1F
100
AcDbEntity
  8
0
  6
Continuous
 62
     7
370
    15
100
AcDbLine
 10
278.4769798122
 20
335.9971288995
 30
0.0
 11
278.4769798122
 21
235.9971288995
 31
0.0
  0
SPLINE
  5
F1
330
1F
100
AcDbEntity
  8
0
  6
Continuous
 62
     7
370
    15
100
AcDbSpline
210
0.0
220
0.0
230
1.0
 70
     8
 71
     3
 72
    38
 73
    34
 74
     0
 42
0.000000001
 43
0.00000001
 40
0.0
 40
0.0
 40
0.0
 40
0.0
 40
0.0624999999999999
 40
0.0624999999999999
 40
0.1249999999999999
 40
0.1249999999999999
 40
0.1874999999999998
 40
0.1874999999999998
 40
0.2499999999999997
 40
0.2499999999999997
 40
0.3124999999999997
 40
0.3124999999999997
 40
0.3749999999999996
 40
0.3749999999999996
 40
0.4374999999999995
 40
0.4374999999999995
 40
0.4999999999999994
 40
0.4999999999999994
 40
0.5624999999999994
 40
0.5624999999999994
 40
0.6249999999999996
 40
0.6249999999999996
 40
0.6874999999999994
 40
0.6874999999999994
 40
0.7499999999999993
 40
0.7499999999999993
 40
0.8124999999999996
 40
0.8124999999999996
 40
0.8749999999999997
 40
0.8749999999999997
 40
0.9374999999999999
 40
0.9374999999999999
 40
1.0
 40
1.0
 40
1.0
 40
1.0
 10
303.4769798121665
 20
365.9971288994702
 30
0.0
 10
302.2694397591418
 20
365.9971288994702
 30
0.0
 10
301.1367413711813
 20
365.9028830195363
 30
0.0
 10
299.112723506258
 20
365.4999775564585
 30
0.0
 10
298.2210035617303
 20
365.1915074748603
 30
0.0
 10
296.7091133946406
 20
364.3626513687398
 30
0.0
 10
296.0885427045135
 20
363.842454845763
 30
0.0
 10
295.1004120493716
 20
362.6149992713345
 30
0.0
 10
294.7324516167918
 20
361.9079297214284
 30
0.0
 10
294.19430669902
 20
360.3482521153798
 30
0.0
 10
294.0237217462629
 20
359.4958335607831
 30
0.0
 10
293.8004112564917
 20
357.6979675290088
 30
0.0
 10
293.7472852519124
 20
356.752709553377
 30
0.0
 10
293.6663083998816
 20
354.8269747782312
 30
0.0
 10
293.6380570848651
 20
353.846687480263
 30
0.0
 10
293.5135916533249
 20
351.9083196278128
 30
0.0
 10
293.4169770692362
 20
350.9504285748767
 30
0.0
 10
293.0739074678474
 20
349.1082092021556
 30
0.0
 10
292.8270519829824
 20
348.2240703839165
 30
0.0
 10
292.1249973022179
 20
346.5689568461776
 30
0.0
 10
291.6693976387534
 20
345.7981716282236
 30
0.0
 10
290.5267397037984
 20
344.391926986193
 30
0.0
 10
289.8392809647428
 20
343.7566570636622
 30
0.0
 10
288.2571923893958
 20
342.6204799907923
 30
0.0
 10
287.3621620855393
 20
342.119762341999
 30
0.0
 10
285.4486343261129
 20
341.2229170317217
 30
0.0
 10
284.4297364029779
 20
340.8269788717834
 30
0.0
 10
282.4236078121997
 20
340.0754249447634
 30
0.0
 10
281.4359766769916
 20
339.7199986792275
 30
0.0
 10
279.730960557905
 20
338.9450210906157
 30
0.0
 10
279.0131751064617
 20
338.5256592690858
 30
0.0
 10
278.1818877663266
 20
337.4724982157729
 30
0.0
 10
278.0679854100698
 20
336.8388884855357
 30
0.0
 10
278.4769798121665
 20
335.9971288994702
 30
0.0
  0
LINE
  5
F2
330
1F
100
AcDbEntity
  8
0
  6
Continuous
 62
     7
370
    15
100
AcDbLine
 10
318.4769798122
 20
365.9971288995
 30
0.0
 11
303.4769798122
 21
365.9971288995
 31
0.0
  0
LINE
  5
F3
330
1F
100
AcDbEntity
  8
0
  6
Continuous
 62
     7
370
    15
100
AcDbLine
 10
154.8677216735
 20
42.3870937933
 30
0.0
 11
84.8677216735
 21
42.3870937933
 31
0.0
  0
LINE
  5
F4
330
1F
100
AcDbEntity
  8
0
  6
Continuous
 62
     7
370
    15
100
AcDbLine
 10
154.8677216735
 20
22.3870937933
 30
0.0
 11
154.8677216735
 21
42.3870937933
 31
0.0
  0
LINE
  5
F5
330
1F
100
AcDbEntity
  8
0
  6
Continuous
 62
     7
370
    15
100
AcDbLine
 10
160.8677216735
 20
22.3870937933
 30
0.0
 11
154.8677216735
 21
22.3870937933
 31
0.0
  0
LINE
  5
F6
330
1F
100
AcDbEntity
  8
0
  6
Continuous
 62
     7
370
    15
100
AcDbLine
 10
160.8677216735
 20
42.3870937933
 30
0.0
 11
160.8677216735
 21
22.3870937933
 31
0.0
  0
LINE
  5
F7
330
1F
100
AcDbEntity
  8
0
  6
Continuous
 62
     7
370
    15
100
AcDbLine
 10
198.8677216735
 20
42.3870937933
 30
0.0
 11
160.8677216735
 21
42.3870937933
 31
0.0
  0
LINE
  5
F8
330
1F
100
AcDbEntity
  8
0
  6
Continuous
 62
     7
370
    15
100
AcDbLine
 10
198.8677216735
 20
22.3870937933
 30
0.0
 11
198.8677216735
 21
42.3870937933
 31
0.0
  0
LINE
  5
F9
330
1F
100
AcDbEntity
  8
0
  6
Continuous
 62
     7
370
    15
100
AcDbLine
 10
204.8677216735
 20
22.3870937933
 30
0.0
 11
198.8677216735
 21
22.3870937933
 31
0.0
  0
LINE
  5
FA
330
1F
100
AcDbEntity
  8
0
  6
Continuous
 62
     7
370
    15
100
AcDbLine
 10
204.8677216735
 20
42.3870937933
 30
0.0
 11
204.8677216735
 21
22.3870937933
 31
0.0
  0
LINE
  5
FB
330
1F
100
AcDbEntity
  8
0
  6
Continuous
 62
     7
370
    15
100
AcDbLine
 10
214.8677216735
 20
42.3870937933
 30
0.0
 11
204.8677216735
 21
42.3870937933
 31
0.0
  0
LINE
  5
FC
330
1F
100
AcDbEntity
  8
0
  6
Continuous
 62
     7
370
    15
100
AcDbLine
 10
214.8677216735
 20
39.3870937933
 30
0.0
 11
214.8677216735
 21
42.3870937933
 31
0.0
  0
LINE
  5
FD
330
1F
100
AcDbEntity
  8
0
  6
Continuous
 62
     7
370
    15
100
AcDbLine
 10
220.8677216735
 20
39.3870937933
 30
0.0
 11
214.8677216735
 21
39.3870937933
 31
0.0
  0
LINE
  5
FE
330
1F
100
AcDbEntity
  8
0
  6
Continuous
 62
     7
370
    15
100
AcDbLine
 10
220.8677216735
 20
33.3870937933
 30
0.0
 11
220.8677216735
 21
39.3870937933
 31
0.0
  0
LINE
  5
FF
330
1F
100
AcDbEntity
  8
0
  6
Continuous
 62
     7
370
    15
100
AcDbLine
 10
214.8677216735
 20
33.3870937933
 30
0.0
 11
220.8677216735
 21
33.3870937933
 31
0.0
  0
LINE
  5
100
330
1F
100
AcDbEntity
  8
0
  6
Continuous
 62
     7
370
    15
100
AcDbLine
 10
214.8677216735
 20
11.3870937933
 30
0.0
 11
214.8677216735
 21
33.3870937933
 31
0.0
  0
LINE
  5
101
330
1F
100
AcDbEntity
  8
0
  6
Continuous
 62
     7
370
    15
100
AcDbLine
 10
220.8677216735
 20
11.3870937933
 30
0.0
 11
214.8677216735
 21
11.3870937933
 31
0.0
  0
LINE
  5
102
330
1F
100
AcDbEntity
  8
0
  6
Continuous
 62
     7
370
    15
100
AcDbLine
 10
220.8677216735
 20
5.3870937933
 30
0.0
 11
220.8677216735
 21
11.3870937933
 31
0.0
  0
LINE
  5
103
330
1F
100
AcDbEntity
  8
0
  6
Continuous
 62
     7
370
    15
100
AcDbLine
 10
214.8677216735
 20
5.3870937933
 30
0.0
 11
220.8677216735
 21
5.3870937933
 31
0.0
  0
LINE
  5
104
330
1F
100
AcDbEntity
  8
0
  6
Continuous
 62
     7
370
    15
100
AcDbLine
 10
214.8677216735
 20
2.3870937933
 30
0.0
 11
214.8677216735
 21
5.3870937933
 31
0.0
  0
LINE
  5
105
330
1F
100
AcDbEntity
  8
0
  6
Continuous
 62
     7
370
    15
100
AcDbLine
 10
114.8677216735
 20
2.3870937933
 30
0.0
 11
214.8677216735
 21
2.3870937933
 31
0.0
  0
SPLINE
  5
106
330
1F
100
AcDbEntity
  8
0
  6
Continuous
 62
     7
370
    15
100
AcDbSpline
210
0.0
220
0.0
230
1.0
 70
     8
 71
     3
 72
    38
 73
    34
 74
     0
 42
0.000000001
 43
0.00000001
 40
0.0
 40
0.0
 40
0.0
 40
0.0
 40
0.0624999999999999
 40
0.0624999999999999
 40
0.1249999999999999
 40
0.1249999999999999
 40
0.1874999999999998
 40
0.1874999999999998
 40
0.2499999999999997
 40
0.2499999999999997
 40
0.3124999999999997
 40
0.3124999999999997
 40
0.3749999999999996
 40
0.3749999999999996
 40
0.4374999999999995
 40
0.4374999999999995
 40
0.4999999999999994
 40
0.4999999999999994
 40
0.5624999999999994
 40
0.5624999999999994
 40
0.6249999999999996
 40
0.6249999999999996
 40
0.6874999999999994
 40
0.6874999999999994
 40
0.7499999999999993
 40
0.7499999999999993
 40
0.8124999999999996
 40
0.8124999999999996
 40
0.8749999999999997
 40
0.8749999999999997
 40
0.9374999999999999
 40
0.9374999999999999
 40
1.0
 40
1.0
 40
1.0
 40
1.0
 10
84.86772167351168
 20
27.38709379328296
 30
0.0
 10
84.86772167351168
 20
26.17955374025827
 30
0.0
 10
84.96196755344555
 20
25.0468553522977
 30
0.0
 10
85.36487301652339
 20
23.02283748737444
 30
0.0
 10
85.67334309812155
 20
22.13111754284672
 30
0.0
 10
86.50219920424216
 20
20.61922737575697
 30
0.0
 10
87.02239572721885
 20
19.99865668562996
 30
0.0
 10
88.24985130164742
 20
19.0105260304881
 30
0.0
 10
88.95692085155358
 20
18.64256559790827
 30
0.0
 10
90.51659845760219
 20
18.10442068013641
 30
0.0
 10
91.36901701219887
 20
17.93383572737937
 30
0.0
 10
93.16688304397313
 20
17.7105252376081
 30
0.0
 10
94.1121410196049
 20
17.65739923302884
 30
0.0
 10
96.03787579475068
 20
17.57642238099805
 30
0.0
 10
97.01816309271891
 20
17.5481710659815
 30
0.0
 10
98.95653094516906
 20
17.42370563444126
 30
0.0
 10
99.91442199810525
 20
17.32709105035258
 30
0.0
 10
101.7566413708263
 20
16.98402144896388
 30
0.0
 10
102.6407801890655
 20
16.73716596409884
 30
0.0
 10
104.2958937268043
 20
16.03511128333434
 30
0.0
 10
105.0666789447583
 20
15.57951161986987
 30
0.0
 10
106.4729235867889
 20
14.43685368491483
 30
0.0
 10
107.1081935093197
 20
13.74939494585924
 30
0.0
 10
108.2443705821896
 20
12.16730637051218
 30
0.0
 10
108.7450882309829
 20
11.27227606665568
 30
0.0
 10
109.6419335412602
 20
9.358748307229295
 30
0.0
 10
110.0378717011985
 20
8.33985038409436
 30
0.0
 10
110.7894256282185
 20
6.333721793316195
 30
0.0
 10
111.1448518937544
 20
5.346090658107986
 30
0.0
 10
111.9198294823661
 20
3.641074539021443
 30
0.0
 10
112.3391913038961
 20
2.923289087578083
 30
0.0
 10
113.392352357209
 20
2.092001747442989
 30
0.0
 10
114.0259620874462
 20
1.978099391186181
 30
0.0
 10
114.8677216735117
 20
2.387093793282956
 30
0.0
  0
LINE
  5
107
330
1F
100
AcDbEntity
  8
0
  6
Continuous
 62
     7
370
    15
100
AcDbLine
 10
84.8677216735
 20
42.3870937933
 30
0.0
 11
84.8677216735
 21
27.3870937933
 31
0.0
  0
LINE
  5
108
330
1F
100
AcDbEntity
  8
0
  6
Continuous
 62
     7
370
    15
100
AcDbLine
 10
122.7654478852
 20
268.2353633224
 30
0.0
 11
152.7654478852
 21
268.2353633224
 31
0.0
  0
LINE
  5
109
330
1F
100
AcDbEntity
  8
0
  6
Continuous
 62
     7
370
    15
100
AcDbLine
 10
122.7654478852
 20
288.2353633224
 30
0.0
 11
122.7654478852
 21
268.2353633224
 31
0.0
  0
LINE
  5
10A
330
1F
100
AcDbEntity
  8
0
  6
Continuous
 62
     7
370
    15
100
AcDbLine
 10
116.7654478852
 20
288.2353633224
 30
0.0
 11
122.7654478852
 21
288.2353633224
 31
0.0
  0
LINE
  5
10B
330
1F
100
AcDbEntity
  8
0
  6
Continuous
 62
     7
370
    15
100
AcDbLine
 10
116.7654478852
 20
268.2353633224
 30
0.0
 11
116.7654478852
 21
288.2353633224
 31
0.0
  0
LINE
  5
10C
330
1F
100
AcDbEntity
  8
0
  6
Continuous
 62
     7
370
    15
100
AcDbLine
 10
86.7654478852
 20
268.2353633224
 30
0.0
 11
116.7654478852
 21
268.2353633224
 31
0.0
  0
LINE
  5
10D
330
1F
100
AcDbEntity
  8
0
  6
Continuous
 62
     7
370
    15
100
AcDbLine
 10
86.7654478852
 20
288.2353633224
 30
0.0
 11
86.7654478852
 21
268.2353633224
 31
0.0
  0
LINE
  5
10E
330
1F
100
AcDbEntity
  8
0
  6
Continuous
 62
     7
370
    15
100
AcDbLine
 10
80.7654478852
 20
288.2353633224
 30
0.0
 11
86.7654478852
 21
288.2353633224
 31
0.0
  0
LINE
  5
10F
330
1F
100
AcDbEntity
  8
0
  6
Continuous
 62
     7
370
    15
100
AcDbLine
 10
80.7654478852
 20
268.2353633224
 30
0.0
 11
80.7654478852
 21
288.2353633224
 31
0.0
  0
LINE
  5
110
330
1F
100
AcDbEntity
  8
0
  6
Continuous
 62
     7
370
    15
100
AcDbLine
 10
55.7654478852
 20
268.2353633224
 30
0.0
 11
80.7654478852
 21
268.2353633224
 31
0.0
  0
LINE
  5
111
330
1F
100
AcDbEntity
  8
0
  6
Continuous
 62
     7
370
    15
100
AcDbLine
 10
55.7654478852
 20
285.2353633224
 30
0.0
 11
55.7654478852
 21
268.2353633224
 31
0.0
  0
LINE
  5
112
330
1F
100
AcDbEntity
  8
0
  6
Continuous
 62
     7
370
    15
100
AcDbLine
 10
49.7654478852
 20
285.2353633224
 30
0.0
 11
55.7654478852
 21
285.2353633224
 31
0.0
  0
LINE
  5
113
330
1F
100
AcDbEntity
  8
0
  6
Continuous
 62
     7
370
    15
100
AcDbLine
 10
49.7654478852
 20
291.2353633224
 30
0.0
 11
49.7654478852
 21
285.2353633224
 31
0.0
  0
LINE
  5
114
330
1F
100
AcDbEntity
  8
0
  6
Continuous
 62
     7
370
    15
100
AcDbLine
 10
55.7654478852
 20
291.2353633224
 30
0.0
 11
49.7654478852
 21
291.2353633224
 31
0.0
  0
LINE
  5
115
330
1F
100
AcDbEntity
  8
0
  6
Continuous
 62
     7
370
    15
100
AcDbLine
 10
55.7654478852
 20
308.2353633224
 30
0.0
 11
55.7654478852
 21
291.2353633224
 31
0.0
  0
LINE
  5
116
330
1F
100
AcDbEntity
  8
0
  6
Continuous
 62
     7
370
    15
100
AcDbLine
 10
255.7654478852
 20
308.2353633224
 30
0.0
 11
55.7654478852
 21
308.2353633224
 31
0.0
  0
LINE
  5
117
330
1F
100
AcDbEntity
  8
0
  6
Continuous
 62
     7
370
    15
100
AcDbLine
 10
255.7654478852
 20
291.2353633224
 30
0.0
 11
255.7654478852
 21
308.2353633224
 31
0.0
  0
LINE
  5
118
330
1F
100
AcDbEntity
  8
0
  6
Continuous
 62
     7
370
    15
100
AcDbLine
 10
261.7654478852
 20
291.2353633224
 30
0.0
 11
255.7654478852
 21
291.2353633224
 31
0.0
  0
LINE
  5
119
330
1F
100
AcDbEntity
  8
0
  6
Continuous
 62
     7
370
    15
100
AcDbLine
 10
261.7654478852
 20
285.2353633224
 30
0.0
 11
261.7654478852
 21
291.2353633224
 31
0.0
  0
LINE
  5
11A
330
1F
100
AcDbEntity
  8
0
  6
Continuous
 62
     7
370
    15
100
AcDbLine
 10
255.7654478852
 20
285.2353633224
 30
0.0
 11
261.7654478852
 21
285.2353633224
 31
0.0
  0
LINE
  5
11B
330
1F
100
AcDbEntity
  8
0
  6
Continuous
 62
     7
370
    15
100
AcDbLine
 10
255.7654478852
 20
268.2353633224
 30
0.0
 11
255.7654478852
 21
285.2353633224
 31
0.0
  0
LINE
  5
11C
330
1F
100
AcDbEntity
  8
0
  6
Continuous
 62
     7
370
    15
100
AcDbLine
 10
230.7654478852
 20
268.2353633224
 30
0.0
 11
255.7654478852
 21
268.2353633224
 31
0.0
  0
LINE
  5
11D
330
1F
100
AcDbEntity
  8
0
  6
Continuous
 62
     7
370
    15
100
AcDbLine
 10
230.7654478852
 20
288.2353633224
 30
0.0
 11
230.7654478852
 21
268.2353633224
 31
0.0
  0
LINE
  5
11E
330
1F
100
AcDbEntity
  8
0
  6
Continuous
 62
     7
370
    15
100
AcDbLine
 10
224.7654478852
 20
288.2353633224
 30
0.0
 11
230.7654478852
 21
288.2353633224
 31
0.0
  0
LINE
  5
11F
330
1F
100
AcDbEntity
  8
0
  6
Continuous
 62
     7
370
    15
100
AcDbLine
 10
224.7654478852
 20
268.2353633224
 30
0.0
 11
224.7654478852
 21
288.2353633224
 31
0.0
  0
LINE
  5
120
330
1F
100
AcDbEntity
  8
0
  6
Continuous
 62
     7
370
    15
100
AcDbLine
 10
194.7654478852
 20
268.2353633224
 30
0.0
 11
224.7654478852
 21
268.2353633224
 31
0.0
  0
LINE
  5
121
330
1F
100
AcDbEntity
  8
0
  6
Continuous
 62
     7
370
    15
100
AcDbLine
 10
194.7654478852
 20
288.2353633224
 30
0.0
 11
194.7654478852
 21
268.2353633224
 31
0.0
  0
LINE
  5
122
330
1F
100
AcDbEntity
  8
0
  6
Continuous
 62
     7
370
    15
100
AcDbLine
 10
188.7654478852
 20
288.2353633224
 30
0.0
 11
194.7654478852
 21
288.2353633224
 31
0.0
  0
LINE
  5
123
330
1F
100
AcDbEntity
  8
0
  6
Continuous
 62
     7
370
    15
100
AcDbLine
 10
188.7654478852
 20
268.2353633224
 30
0.0
 11
188.7654478852
 21
288.2353633224
 31
0.0
  0
LINE
  5
124
330
1F
100
AcDbEntity
  8
0
  6
Continuous
 62
     7
370
    15
100
AcDbLine
 10
158.7654478852
 20
268.2353633224
 30
0.0
 11
188.7654478852
 21
268.2353633224
 31
0.0
  0
LINE
  5
125
330
1F
100
AcDbEntity
  8
0
  6
Continuous
 62
     7
370
    15
100
AcDbLine
 10
158.7654478852
 20
288.2353633224
 30
0.0
 11
158.7654478852
 21
268.2353633224
 31
0.0
  0
LINE
  5
126
330
1F
100
AcDbEntity
  8
0
  6
Continuous
 62
     7
370
    15
100
AcDbLine
 10
152.7654478852
 20
288.2353633224
 30
0.0
 11
158.7654478852
 21
288.2353633224
 31
0.0
  0
LINE
  5
127
330
1F
100
AcDbEntity
  8
0
  6
Continuous
 62
     7
370
    15
100
AcDbLine
 10
152.7654478852
 20
268.2353633224
 30
0.0
 11
152.7654478852
 21
288.2353633224
 31
0.0
  0
LINE
  5
128
330
1F
100
AcDbEntity
  8
0
  6
Continuous
 62
     7
370
    15
100
AcDbLine
 10
127.7477244099
 20
326.4293817613
 30
0.0
 11
157.7477244099
 21
326.4293817613
 31
0.0
  0
LINE
  5
129
330
1F
100
AcDbEntity
  8
0
  6
Continuous
 62
     7
370
    15
100
AcDbLine
 10
127.7477244099
 20
346.4293817613
 30
0.0
 11
127.7477244099
 21
326.4293817613
 31
0.0
  0
LINE
  5
12A
330
1F
100
AcDbEntity
  8
0
  6
Continuous
 62
     7
370
    15
100
AcDbLine
 10
121.7477244099
 20
346.4293817613
 30
0.0
 11
127.7477244099
 21
346.4293817613
 31
0.0
  0
LINE
  5
12B
330
1F
100
AcDbEntity
  8
0
  6
Continuous
 62
     7
370
    15
100
AcDbLine
 10
121.7477244099
 20
326.4293817613
 30
0.0
 11
121.7477244099
 21
346.4293817613
 31
0.0
  0
LINE
  5
12C
330
1F
100
AcDbEntity
  8
0
  6
Continuous
 62
     7
370
    15
100
AcDbLine
 10
91.7477244099
 20
326.4293817613
 30
0.0
 11
121.7477244099
 21
326.4293817613
 31
0.0
  0
LINE
  5
12D
330
1F
100
AcDbEntity
  8
0
  6
Continuous
 62
     7
370
    15
100
AcDbLine
 10
91.7477244099
 20
346.4293817613
 30
0.0
 11
91.7477244099
 21
326.4293817613
 31
0.0
  0
LINE
  5
12E
330
1F
100
AcDbEntity
  8
0
  6
Continuous
 62
     7
370
    15
100
AcDbLine
 10
85.7477244099
 20
346.4293817613
 30
0.0
 11
91.7477244099
 21
346.4293817613
 31
0.0
  0
LINE
  5
12F
330
1F
100
AcDbEntity
  8
0
  6
Continuous
 62
     7
370
    15
100
AcDbLine
 10
85.7477244099
 20
326.4293817613
 30
0.0
 11
85.7477244099
 21
346.4293817613
 31
0.0
  0
LINE
  5
130
330
1F
100
AcDbEntity
  8
0
  6
Continuous
 62
     7
370
    15
100
AcDbLine
 10
60.7477244099
 20
326.4293817613
 30
0.0
 11
85.7477244099
 21
326.4293817613
 31
0.0
  0
LINE
  5
131
330
1F
100
AcDbEntity
  8
0
  6
Continuous
 62
     7
370
    15
100
AcDbLine
 10
60.7477244099
 20
343.4293817613
 30
0.0
 11
60.7477244099
 21
326.4293817613
 31
0.0
  0
LINE
  5
132
330
1F
100
AcDbEntity
  8
0
  6
Continuous
 62
     7
370
    15
100
AcDbLine
 10
54.7477244099
 20
343.4293817613
 30
0.0
 11
60.7477244099
 21
343.4293817613
 31
0.0
  0
LINE
  5
133
330
1F
100
AcDbEntity
  8
0
  6
Continuous
 62
     7
370
    15
100
AcDbLine
 10
54.7477244099
 20
349.4293817613
 30
0.0
 11
54.7477244099
 21
343.4293817613
 31
0.0
  0
LINE
  5
134
330
1F
100
AcDbEntity
  8
0
  6
Continuous
 62
     7
370
    15
100
AcDbLine
 10
60.7477244099
 20
349.4293817613
 30
0.0
 11
54.7477244099
 21
349.4293817613
 31
0.0
  0
LINE
  5
135
330
1F
100
AcDbEntity
  8
0
  6
Continuous
 62
     7
370
    15
100
AcDbLine
 10
60.7477244099
 20
366.4293817613
 30
0.0
 11
60.7477244099
 21
349.4293817613
 31
0.0
  0
LINE
  5
136
330
1F
100
AcDbEntity
  8
0
  6
Continuous
 62
     7
370
    15
100
AcDbLine
 10
260.7477244099
 20
366.4293817613
 30
0.0
 11
60.7477244099
 21
366.4293817613
 31
0.0
  0
LINE
  5
137
330
1F
100
AcDbEntity
  8
0
  6
Continuous
 62
     7
370
    15
100
AcDbLine
 10
260.7477244099
 20
349.4293817613
 30
0.0
 11
260.7477244099
 21
366.4293817613
 31
0.0
  0
LINE
  5
138
330
1F
100
AcDbEntity
  8
0
  6
Continuous
 62
     7
370
    15
100
AcDbLine
 10
266.7477244099
 20
349.4293817613
 30
0.0
 11
260.7477244099
 21
349.4293817613
 31
0.0
  0
LINE
  5
139
330
1F
100
AcDbEntity
  8
0
  6
Continuous
 62
     7
370
    15
100
AcDbLine
 10
266.7477244099
 20
343.4293817613
 30
0.0
 11
266.7477244099
 21
349.4293817613
 31
0.0
  0
LINE
  5
13A
330
1F
100
AcDbEntity
  8
0
  6
Continuous
 62
     7
370
    15
100
AcDbLine
 10
260.7477244099
 20
343.4293817613
 30
0.0
 11
266.7477244099
 21
343.4293817613
 31
0.0
  0
LINE
  5
13B
330
1F
100
AcDbEntity
  8
0
  6
Continuous
 62
     7
370
    15
100
AcDbLine
 10
260.7477244099
 20
326.4293817613
 30
0.0
 11
260.7477244099
 21
343.4293817613
 31
0.0
  0
LINE
  5
13C
330
1F
100
AcDbEntity
  8
0
  6
Continuous
 62
     7
370
    15
100
AcDbLine
 10
235.7477244099
 20
326.4293817613
 30
0.0
 11
260.7477244099
 21
326.4293817613
 31
0.0
  0
LINE
  5
13D
330
1F
100
AcDbEntity
  8
0
  6
Continuous
 62
     7
370
    15
100
AcDbLine
 10
235.7477244099
 20
346.4293817613
 30
0.0
 11
235.7477244099
 21
326.4293817613
 31
0.0
  0
LINE
  5
13E
330
1F
100
AcDbEntity
  8
0
  6
Continuous
 62
     7
370
    15
100
AcDbLine
 10
229.7477244099
 20
346.4293817613
 30
0.0
 11
235.7477244099
 21
346.4293817613
 31
0.0
  0
LINE
  5
13F
330
1F
100
AcDbEntity
  8
0
  6
Continuous
 62
     7
370
    15
100
AcDbLine
 10
229.7477244099
 20
326.4293817613
 30
0.0
 11
229.7477244099
 21
346.4293817613
 31
0.0
  0
LINE
  5
140
330
1F
100
AcDbEntity
  8
0
  6
Continuous
 62
     7
370
    15
100
AcDbLine
 10
199.7477244099
 20
326.4293817613
 30
0.0
 11
229.7477244099
 21
326.4293817613
 31
0.0
  0
LINE
  5
141
330
1F
100
AcDbEntity
  8
0
  6
Continuous
 62
     7
370
    15
100
AcDbLine
 10
199.7477244099
 20
346.4293817613
 30
0.0
 11
199.7477244099
 21
326.4293817613
 31
0.0
  0
LINE
  5
142
330
1F
100
AcDbEntity
  8
0
  6
Continuous
 62
     7
370
    15
100
AcDbLine
 10
193.7477244099
 20
346.4293817613
 30
0.0
 11
199.7477244099
 21
346.4293817613
 31
0.0
  0
LINE
  5
143
330
1F
100
AcDbEntity
  8
0
  6
Continuous
 62
     7
370
    15
100
AcDbLine
 10
193.7477244099
 20
326.4293817613
 30
0.0
 11
193.7477244099
 21
346.4293817613
 31
0.0
  0
LINE
  5
144
330
1F
100
AcDbEntity
  8
0
  6
Continuous
 62
     7
370
    15
100
AcDbLine
 10
163.7477244099
 20
326.4293817613
 30
0.0
 11
193.7477244099
 21
326.4293817613
 31
0.0
  0
LINE
  5
145
330
1F
100
AcDbEntity
  8
0
  6
Continuous
 62
     7
370
    15
100
AcDbLine
 10
163.7477244099
 20
346.4293817613
 30
0.0
 11
163.7477244099
 21
326.4293817613
 31
0.0
  0
LINE
  5
146
330
1F
100
AcDbEntity
  8
0
  6
Continuous
 62
     7
370
    15
100
AcDbLine
 10
157.7477244099
 20
346.4293817613
 30
0.0
 11
163.7477244099
 21
346.4293817613
 31
0.0
  0
LINE
  5
147
330
1F
100
AcDbEntity
  8
0
  6
Continuous
 62
     7
370
    15
100
AcDbLine
 10
157.7477244099
 20
326.4293817613
 30
0.0
 11
157.7477244099
 21
346.4293817613
 31
0.0
  0
ENDSEC
  0
SECTION
  2
OBJECTS
  0
DICTIONARY
  5
C
330
0
100
AcDbDictionary
281
     1
  3
ACAD_GROUP
350
D
  3
ACAD_LAYOUT
350
1A
  3
ACAD_MLINESTYLE
350
17
  3
ACAD_PLOTSETTINGS
350
19
  3
ACAD_PLOTSTYLENAME
350
E
  3
ACAD_SCALELIST
350
47
  0
DICTIONARY
  5
D
102
{ACAD_REACTORS
330
C
102
}
330
C
100
AcDbDictionary
281
     1
  0
DICTIONARY
  5
1A
102
{ACAD_REACTORS
330
C
102
}
330
C
100
AcDbDictionary
281
     1
  3
Layout1
350
1E
  3
Layout2
350
26
  3
Model
350
22
  0
DICTIONARY
  5
17
102
{ACAD_REACTORS
330
C
102
}
330
C
100
AcDbDictionary
281
     1
  3
Standard
350
18
  0
DICTIONARY
  5
19
102
{ACAD_REACTORS
330
C
102
}
330
C
100
AcDbDictionary
281
     1
  0
ACDBDICTIONARYWDFLT
  5
E
102
{ACAD_REACTORS
330
C
102
}
330
C
100
AcDbDictionary
281
     1
  3
Normal
350
F
100
AcDbDictionaryWithDefault
340
F
  0
DICTIONARY
  5
47
102
{ACAD_REACTORS
330
C
102
}
330
C
100
AcDbDictionary
281
     1
  3
A0
350
48
  3
A1
350
49
  3
A2
350
4A
  3
A3
350
4B
  3
A4
350
4C
  3
A5
350
4D
  3
A6
350
4E
  3
A7
350
4F
  3
A8
350
50
  3
A9
350
51
  3
B0
350
52
  3
B1
350
53
  3
B2
350
54
  3
B3
350
55
  3
B4
350
56
  3
B5
350
57
  3
B6
350
58
  3
B7
350
59
  3
B8
350
5A
  3
B9
350
5B
  3
C0
350
5C
  3
C1
350
5D
  3
C2
350
5E
  3
C3
350
5F
  3
C4
350
60
  3
C5
350
61
  3
C6
350
62
  3
C7
350
63
  3
C8
350
64
  3
C9
350
65
  3
D0
350
66
  3
D1
350
67
  3
D2
350
68
  0
LAYOUT
  5
1E
102
{ACAD_REACTORS
330
1A
102
}
330
1A
100
AcDbPlotSettings
  1

  2
none_device
  4

  6

 40
0.0
 41
0.0
 42
0.0
 43
0.0
 44
0.0
 45
0.0
 46
0.0
 47
0.0
 48
0.0
 49
0.0
140
0.0
141
0.0
142
1.0
143
1.0
 70
   688
 72
     1
 73
     0
 74
     5
  7

 75
    16
147
1.0
148
0.0
149
0.0
100
AcDbLayout
  1
Layout1
 70
     1
 71
     1
 10
0.0
 20
0.0
 11
420.0
 21
297.0
 12
0.0
 22
0.0
 32
0.0
 14
1.0000000000E+20
 24
1.0000000000E+20
 34
1.0000000000E+20
 15
-1.0000000000E+20
 25
-1.0000000000E+20
 35
-1.0000000000E+20
146
0.0
 13
0.0
 23
0.0
 33
0.0
 16
1.0
 26
0.0
 36
0.0
 17
0.0
 27
1.0
 37
0.0
 76
     0
330
1B
  0
LAYOUT
  5
26
102
{ACAD_REACTORS
330
1A
102
}
330
1A
100
AcDbPlotSettings
  1

  2
none_device
  4

  6

 40
0.0
 41
0.0
 42
0.0
 43
0.0
 44
0.0
 45
0.0
 46
0.0
 47
0.0
 48
0.0
 49
0.0
140
0.0
141
0.0
142
1.0
143
1.0
 70
   688
 72
     1
 73
     0
 74
     5
  7

 75
    16
147
1.0
148
0.0
149
0.0
100
AcDbLayout
  1
Layout2
 70
     1
 71
     2
 10
0.0
 20
0.0
 11
0.0
 21
0.0
 12
0.0
 22
0.0
 32
0.0
 14
0.0
 24
0.0
 34
0.0
 15
0.0
 25
0.0
 35
0.0
146
0.0
 13
0.0
 23
0.0
 33
0.0
 16
1.0
 26
0.0
 36
0.0
 17
0.0
 27
1.0
 37
0.0
 76
     0
330
23
  0
LAYOUT
  5
22
102
{ACAD_REACTORS
330
1A
102
}
330
1A
100
AcDbPlotSettings
  1

  2
none_device
  4
Letter_(8.50_x_11.00_Inches)
  6

 40
6.35
 41
6.35
 42
6.35000508
 43
6.35000508
 44
215.9
 45
279.4
 46
0.0
 47
0.0
 48
0.0
 49
0.0
140
0.0
141
0.0
142
1.0
143
1.0
 70
  1712
 72
     1
 73
     0
 74
     0
  7

 75
     0
147
1.0
148
0.0
149
0.0
100
AcDbLayout
  1
Model
 70
     1
 71
     0
 10
0.0
 20
0.0
 11
320.0
 21
370.0
 12
0.0
 22
0.0
 32
0.0
 14
0.0
 24
0.0
 34
0.0
 15
320.0
 25
370.0
 35
0.0
146
0.0
 13
0.0
 23
0.0
 33
0.0
 16
1.0
 26
0.0
 36
0.0
 17
0.0
 27
1.0
 37
0.0
 76
     0
330
1F
331
29
  0
MLINESTYLE
  5
18
102
{ACAD_REACTORS
330
17
102
}
330
17
100
AcDbMlineStyle
  2
Standard
 70
     0
  3

 62
   256
 51
90.0
 52
90.0
 71
     2
 49
0.5
 62
   256
  6
BYLAYER
 49
-0.5
 62
   256
  6
BYLAYER
  0
ACDBPLACEHOLDER
  5
F
102
{ACAD_REACTORS
330
E
102
}
330
E
  0
SCALE
  5
48
102
{ACAD_REACTORS
330
47
102
}
330
47
100
AcDbScale
 70
     0
300
1:1
140
1.0
141
1.0
290
     1
  0
SCALE
  5
49
102
{ACAD_REACTORS
330
47
102
}
330
47
100
AcDbScale
 70
     0
300
1:2
140
1.0
141
2.0
290
     0
  0
SCALE
  5
4A
102
{ACAD_REACTORS
330
47
102
}
330
47
100
AcDbScale
 70
     0
300
1:4
140
1.0
141
4.0
290
     0
  0
SCALE
  5
4B
102
{ACAD_REACTORS
330
47
102
}
330
47
100
AcDbScale
 70
     0
300
1:5
140
1.0
141
5.0
290
     0
  0
SCALE
  5
4C
102
{ACAD_REACTORS
330
47
102
}
330
47
100
AcDbScale
 70
     0
300
1:8
140
1.0
141
8.0
290
     0
  0
SCALE
  5
4D
102
{ACAD_REACTORS
330
47
102
}
330
47
100
AcDbScale
 70
     0
300
1:10
140
1.0
141
10.0
290
     0
  0
SCALE
  5
4E
102
{ACAD_REACTORS
330
47
102
}
330
47
100
AcDbScale
 70
     0
300
1:16
140
1.0
141
16.0
290
     0
  0
SCALE
  5
4F
102
{ACAD_REACTORS
330
47
102
}
330
47
100
AcDbScale
 70
     0
300
1:20
140
1.0
141
20.0
290
     0
  0
SCALE
  5
50
102
{ACAD_REACTORS
330
47
102
}
330
47
100
AcDbScale
 70
     0
300
1:30
140
1.0
141
30.0
290
     0
  0
SCALE
  5
51
102
{ACAD_REACTORS
330
47
102
}
330
47
100
AcDbScale
 70
     0
300
1:40
140
1.0
141
40.0
290
     0
  0
SCALE
  5
52
102
{ACAD_REACTORS
330
47
102
}
330
47
100
AcDbScale
 70
     0
300
1:50
140
1.0
141
50.0
290
     0
  0
SCALE
  5
53
102
{ACAD_REACTORS
330
47
102
}
330
47
100
AcDbScale
 70
     0
300
1:100
140
1.0
141
100.0
290
     0
  0
SCALE
  5
54
102
{ACAD_REACTORS
330
47
102
}
330
47
100
AcDbScale
 70
     0
300
2:1
140
2.0
141
1.0
290
     0
  0
SCALE
  5
55
102
{ACAD_REACTORS
330
47
102
}
330
47
100
AcDbScale
 70
     0
300
4:1
140
4.0
141
1.0
290
     0
  0
SCALE
  5
56
102
{ACAD_REACTORS
330
47
102
}
330
47
100
AcDbScale
 70
     0
300
8:1
140
8.0
141
1.0
290
     0
  0
SCALE
  5
57
102
{ACAD_REACTORS
330
47
102
}
330
47
100
AcDbScale
 70
     0
300
10:1
140
10.0
141
1.0
290
     0
  0
SCALE
  5
58
102
{ACAD_REACTORS
330
47
102
}
330
47
100
AcDbScale
 70
     0
300
100:1
140
100.0
141
1.0
290
     0
  0
SCALE
  5
59
102
{ACAD_REACTORS
330
47
102
}
330
47
100
AcDbScale
 70
     0
300
1/128" = 1'-0"
140
0.0078125
141
12.0
290
     0
  0
SCALE
  5
5A
102
{ACAD_REACTORS
330
47
102
}
330
47
100
AcDbScale
 70
     0
300
1/64" = 1'-0"
140
0.015625
141
12.0
290
     0
  0
SCALE
  5
5B
102
{ACAD_REACTORS
330
47
102
}
330
47
100
AcDbScale
 70
     0
300
1/32" = 1'-0"
140
0.03125
141
12.0
290
     0
  0
SCALE
  5
5C
102
{ACAD_REACTORS
330
47
102
}
330
47
100
AcDbScale
 70
     0
300
1/16" = 1'-0"
140
0.0625
141
12.0
290
     0
  0
SCALE
  5
5D
102
{ACAD_REACTORS
330
47
102
}
330
47
100
AcDbScale
 70
     0
300
3/32" = 1'-0"
140
0.09375
141
12.0
290
     0
  0
SCALE
  5
5E
102
{ACAD_REACTORS
330
47
102
}
330
47
100
AcDbScale
 70
     0
300
1/8" = 1'-0"
140
0.125
141
12.0
290
     0
  0
SCALE
  5
5F
102
{ACAD_REACTORS
330
47
102
}
330
47
100
AcDbScale
 70
     0
300
3/16" = 1'-0"
140
0.1875
141
12.0
290
     0
  0
SCALE
  5
60
102
{ACAD_REACTORS
330
47
102
}
330
47
100
AcDbScale
 70
     0
300
1/4" = 1'-0"
140
0.25
141
12.0
290
     0
  0
SCALE
  5
61
102
{ACAD_REACTORS
330
47
102
}
330
47
100
AcDbScale
 70
     0
300
3/8" = 1'-0"
140
0.375
141
12.0
290
     0
  0
SCALE
  5
62
102
{ACAD_REACTORS
330
47
102
}
330
47
100
AcDbScale
 70
     0
300
1/2" = 1'-0"
140
0.5
141
12.0
290
     0
  0
SCALE
  5
63
102
{ACAD_REACTORS
330
47
102
}
330
47
100
AcDbScale
 70
     0
300
3/4" = 1'-0"
140
0.75
141
12.0
290
     0
  0
SCALE
  5
64
102
{ACAD_REACTORS
330
47
102
}
330
47
100
AcDbScale
 70
     0
300
1" = 1'-0"
140
1.0
141
12.0
290
     0
  0
SCALE
  5
65
102
{ACAD_REACTORS
330
47
102
}
330
47
100
AcDbScale
 70
     0
300
1-1/2" = 1'-0"
140
1.5
141
12.0
290
     0
  0
SCALE
  5
66
102
{ACAD_REACTORS
330
47
102
}
330
47
100
AcDbScale
 70
     0
300
3" = 1'-0"
140
3.0
141
12.0
290
     0
  0
SCALE
  5
67
102
{ACAD_REACTORS
330
47
102
}
330
47
100
AcDbScale
 70
     0
300
6" = 1'-0"
140
6.0
141
12.0
290
     0
  0
SCALE
  5
68
102
{ACAD_REACTORS
330
47
102
}
330
47
100
AcDbScale
 70
     0
300
1'-0" = 1'-0"
140
12.0
141
12.0
290
     0
  0
ENDSEC
  0
EOF
